<svg width="1335" height="754" viewBox="0 0 1335 754" fill="none" xmlns="http://www.w3.org/2000/svg">
<g clip-path="url(#clip0)">
<path d="M96.2438 90.3735C95.7934 89.953 102.969 88.0609 101.888 88.7516C105.821 86.2288 105.371 85.0575 106.662 80.4624C107.502 77.4591 106.662 74.2455 108.193 71.4524C108.553 70.7617 115.309 65.4458 114.468 64.9652C112.666 64.0042 108.463 65.9563 105.851 65.2055C102.699 64.2444 102.849 63.1032 100.477 61.4814C96.9643 58.9285 100.207 59.0787 95.283 57.547C93.1514 56.8863 90.5393 58.2378 88.4377 57.547C87.477 64.8151 88.6479 89.0219 96.2438 90.3735Z" fill="#E9E9E9"/>
<path d="M1251.87 589.436C1249.14 587.063 1245.86 589.106 1243.88 587.934C1241.9 586.763 1242.5 584.571 1240.88 583.339C1238.51 581.597 1235.87 581.657 1233.59 579.885C1226.02 573.879 1216.56 544.536 1233.04 544.806C1236.05 544.806 1243.61 551.474 1243.58 547.57C1243.58 544.566 1232.62 538.049 1230.31 535.736C1226.2 531.652 1220.89 528.618 1216.71 524.804C1213.05 521.441 1210.26 516.455 1206.23 512.791C1201.12 508.212 1196.79 502.824 1193.41 496.843C1190.41 491.647 1188.19 484.83 1184.71 480.055C1182.46 477.051 1179.18 476.691 1176.81 474.048C1175.34 472.486 1174.02 467.561 1172.58 466.69C1168.25 464.077 1164.68 467.681 1167.17 472.036C1170.18 477.352 1173.72 473.177 1173.03 479.694C1172.82 481.826 1174.23 481.286 1173.21 483.268C1172.19 485.25 1168.89 484.68 1168.92 488.194C1168.92 489.605 1172.31 491.647 1173.09 492.729C1175.2 495.748 1176.62 499.192 1177.26 502.82C1179.6 511.139 1184.35 512.791 1190.02 518.677C1196.48 525.405 1197.95 534.475 1201.34 542.974C1203.32 546.997 1205.72 550.793 1208.52 554.297C1211.25 558.502 1212.3 563.007 1214.79 567.422C1218.99 574.87 1221.13 582.438 1224.82 590.217C1227.67 596.224 1233.59 610.099 1240.67 611.751C1243.34 607.907 1236.11 602.02 1238.48 597.936C1240.85 593.851 1239.83 597.936 1243.37 596.884C1245.08 596.476 1246.7 595.753 1248.15 594.752C1248.15 595.082 1248.78 595.743 1251.42 596.704C1250.64 596.404 1255.86 603.101 1255.38 599.107C1254.96 596.104 1254.39 591.629 1251.87 589.436Z" fill="#E9E9E9"/>
<path d="M1316.6 408.906C1319.87 411.909 1321.1 414.913 1324.74 417.616C1325.25 417.976 1332.45 422.721 1332.54 422.691C1332.12 417.946 1334.88 415.694 1335.3 411.399C1335.64 407.825 1333.89 404.761 1333.8 401.248C1333.26 396.059 1331.89 390.99 1329.75 386.231C1328.31 383.498 1320.26 381.095 1320.17 379.924C1320.3 379.379 1320.62 378.897 1321.07 378.567C1321.52 378.236 1322.08 378.078 1322.64 378.122C1323.13 375.599 1323.49 373.053 1323.72 370.493C1323.99 370.493 1328.16 364.667 1327.71 365.898C1327.84 365.399 1328.09 364.938 1328.43 364.547C1327.61 363.945 1326.93 363.165 1326.45 362.264C1325.27 360.677 1323.99 359.171 1322.6 357.759C1317.08 351.753 1312.79 346.347 1317.83 337.487C1320.05 333.582 1327.08 330.969 1322.42 324.783C1320.71 322.53 1317.56 322.89 1315.4 321.479C1310.78 318.561 1307.36 314.086 1305.76 308.865C1305.12 306.523 1304.61 304.146 1304.23 301.747C1303.84 300.125 1299.1 300.636 1301.23 297.572C1305.46 291.566 1304.68 305.111 1309.21 300.756C1314.26 295.921 1303.72 289.463 1300.84 289.043C1298.98 288.773 1299.58 291.025 1296.39 289.974C1298.5 290.665 1291.29 285.139 1291.53 285.499C1289.19 281.835 1287.24 270.482 1280.18 278.411C1279.07 279.672 1283.33 286.16 1276.94 283.697C1271.87 281.715 1269.25 268.26 1267.51 264.085C1264.36 256.457 1253.1 245.525 1259.8 237.896C1261.8 238.977 1263.32 238.807 1264.36 237.385C1264.78 237.118 1265.09 236.702 1265.23 236.219C1265.36 235.735 1265.31 235.22 1265.08 234.773C1264.3 236.515 1263.49 226.664 1263.49 226.874C1263.25 216.092 1265.29 219.936 1270.93 227.625C1274.54 229.006 1269.91 217.473 1269.85 216.542C1269.58 212.46 1270.56 208.392 1272.68 204.889C1274.2 201.708 1276.04 198.689 1278.17 195.879C1281.35 193.897 1288.68 197.952 1290.75 194.648C1292.4 191.975 1287.21 188.641 1286.16 185.398C1284.39 179.812 1285.71 173.204 1283.63 167.588C1281.32 162.425 1279.63 156.999 1278.62 151.43C1277.63 143.441 1278.62 134.761 1277.66 126.352C1277.24 122.478 1274 116.441 1274.87 113.107C1277.09 110.393 1279.58 107.917 1282.31 105.719C1284.27 103.917 1287.54 102.716 1287.48 100.193C1285.46 97.6146 1283.28 95.1763 1280.93 92.895C1277.09 91.4534 1277.45 94.4867 1274.36 94.6369C1274.87 94.6369 1269.79 86.6781 1270.33 94.2465C1269.85 93.9762 1262.35 90.9128 1263.46 94.9673C1262.5 94.4567 1255.23 85.747 1254.27 91.4834C1252.08 85.4767 1248.69 92.8049 1247.61 93.0752C1245.86 92.976 1244.13 92.7653 1242.41 92.4445C1241.03 92.985 1239.67 93.6068 1238.36 94.3066C1239.8 93.4957 1233.77 105.179 1234.46 96.499C1234.79 92.2042 1243.46 90.4923 1244.78 86.0474C1246.62 80.3711 1239.53 66.3455 1234.7 63.5824C1229.86 60.8194 1225.69 62.8916 1222.06 57.1553C1221.49 56.3143 1219.9 56.5546 1219.63 55.5335C1219.02 53.281 1222.93 53.281 1220.8 50.1875C1223.41 49.5268 1224.49 54.182 1226.8 54.9628C1228.92 55.4319 1231.11 55.4829 1233.26 55.113C1235.54 54.8127 1234.01 57.8761 1237.16 54.7226C1240.31 51.5691 1235.78 48.2654 1236.68 45.9228C1238.18 41.9584 1244.3 40.1264 1248 39.6458C1250.76 39.2854 1252.83 41.598 1256.07 39.6458C1258.54 38.1442 1257.75 35.3511 1259.71 33.6392C1262.71 30.6358 1268.71 30.6358 1271.08 27.0318C1273.46 23.4278 1269.82 19.2832 1267.03 18.0218C1265.14 17.2409 1263.04 18.7426 1260.31 17.0607C1260.44 16.0902 1260.29 15.1007 1259.85 14.2218C1259.42 13.3429 1258.73 12.6156 1257.87 12.1353H1255.11C1252.11 10.3032 1247.97 14.3277 1243.91 12.8861C1243.91 10.3933 1248.93 8.89166 1250.1 6.87943C1250.82 5.61802 1250.88 3.63582 1251.75 1.83382C1251.37 1.41467 1250.89 1.09637 1250.36 0.907393C1249.82 0.718421 1249.25 0.664677 1248.69 0.750969C1248.13 0.83726 1247.61 1.0609 1247.15 1.40187C1246.7 1.74283 1246.34 2.19049 1246.11 2.70479C1243.97 1.98399 1253.73 -8.67786 1243.61 -4.68342C1239.35 -13.6934 1243.13 -11.6512 1236.86 -8.19732C1234.2 -6.4562 1231.36 -5.00626 1228.39 -3.87252C1224.55 -2.52102 1222.93 -2.40088 1221.76 1.41335C1221.34 2.76486 1222.48 4.89723 1222.18 5.79823C1221.49 7.9306 1219.93 8.56129 1219.35 9.58243C1219.35 9.8227 1216.77 7.14973 1216.11 10.4834C1215.27 14.598 1219.78 15.529 1222.12 16.1898C1222.93 16.4 1230.04 16.1898 1228.96 15.2587C1235.48 21.2654 1213.95 24.2687 1211.19 17.9017C1211.07 21.5858 1210.07 22.1864 1208.19 19.7037C1207.76 19.294 1207.25 18.9804 1206.69 18.7836C1206.13 18.5868 1205.53 18.5114 1204.94 18.5624C1204.94 18.5624 1197.47 22.5568 1203.05 23.3978C1203.35 24.3889 1197.71 22.2865 1197.05 22.4367C1194.26 23.9708 1191.6 25.7285 1189.09 27.6925C1189.33 27.5424 1186.75 31.2065 1187.05 31.0263C1186.18 31.5669 1184.05 30.0051 1183.51 30.4256C1181.5 31.657 1181.35 32.8283 1179.3 33.8494C1178.37 34.2999 1176.99 33.8494 1175.85 34.5101C1172.4 36.3422 1170.75 38.9851 1167.8 40.5168C1164.86 42.0485 1161.5 42.0185 1158.35 44.8716C1154.35 48.4756 1147.84 51.4189 1143.13 56.2843C1137.27 62.291 1136.76 72.2921 1131.12 77.3077C1128.56 79.5001 1123.16 82.6236 1123.67 85.5668C1125.95 87.2364 1128.04 89.161 1129.89 91.3032C1131.24 91.7537 1134.63 89.0207 1137.75 89.8316C1141.41 90.8227 1146.13 94.7871 1145.2 98.5713C1143.94 103.587 1125.68 107.191 1121.66 102.235C1123.82 100.373 1128.77 101.334 1128.14 97.1898C1127.51 93.0452 1120.58 95.0574 1119.14 97.1898C1116.95 100.463 1120.76 101.965 1121.09 105.389C1121.24 107.67 1120.87 109.955 1120.02 112.076C1119.17 114.197 1117.85 116.099 1116.16 117.642C1113.49 120.376 1109.5 120.646 1107.37 122.898C1106.17 124.13 1107.01 125.601 1106.02 126.923C1102.14 132.239 1101.3 142.57 1091.97 141.939C1087.64 141.699 1086.32 137.344 1082.96 135.482C1077.95 132.479 1074.67 133.53 1069.39 135.482C1061.22 137.995 1054.17 143.231 1049.39 150.319C1047.08 154.133 1046.63 160.74 1041.38 162.122C1037.08 163.263 1034.26 159.119 1029.91 159.449C1027.6 159.599 1020.48 165.906 1018.38 164.074C1014.6 160.8 1019.82 158.638 1019.55 155.485C1014.06 152.211 1006.04 158.668 1001.06 160.5C996.973 162.002 991.538 162.122 987.005 164.074C984.303 165.245 981.931 166.867 979.319 168.189C977.307 169.21 969.321 170.862 968 171.943C962.716 176.147 970.732 173.625 968 180.562C966.499 180.322 964.998 176.027 963.377 179.181C962.596 180.803 962.206 187.83 964.547 188.551C965.004 187.025 965.968 185.701 967.28 184.797C968.39 184.797 969.231 192.426 969.441 192.786C971.122 195.549 975.086 195.789 976.977 198.282C974.545 199.093 961.095 197.591 961.305 202.276C961.305 204.048 968.811 207.532 965.358 208.553C961.905 209.575 958.242 203.568 952.898 206.061C947.554 208.553 950.346 214.65 946.894 216.662C942.66 219.245 938.727 213.239 936.055 212.638C932.393 211.767 933.503 209.635 931.942 214.891C930.771 218.855 937.166 231.619 934.044 234.052C933.443 234.232 929.03 230.838 929.6 234.052C922.965 233.541 917.321 225.642 914.289 221.077C913.748 220.266 911.436 221.828 910.926 219.065C910.566 217.143 913.268 216.362 913.208 215.371C912.968 210.626 911.376 209.755 909.275 206.151C906.272 201.135 906.482 196.54 899.877 193.837C897.704 192.901 895.313 192.589 892.972 192.936C890.87 193.537 890.72 195.369 889.789 195.729C888.228 196.3 877.27 197.651 876.699 191.975C874.582 194.182 872.719 196.62 871.145 199.243C870.334 203.208 875.168 203.928 875.138 207.803C875.138 214.47 872.586 209.965 870.665 209.304C868.743 208.644 869.584 212.037 868.263 212.097C866.178 212.134 864.092 212.044 862.018 211.827C858.937 211.807 855.885 211.227 853.011 210.115C851.24 209.184 851.09 206.061 849.408 205.28C840.401 201.195 828.002 208.674 819.385 207.112C817.554 206.781 817.433 204.439 815.362 204.109C814.371 204.109 814.311 206.181 814.551 206.181C814.29 206.643 813.903 207.021 813.435 207.271C812.967 207.521 812.438 207.632 811.909 207.592C809.237 207.202 808.907 204.589 807.676 204.139C805.664 203.298 796.687 201.916 798.249 209.094C798.819 211.677 804.523 205.55 805.904 208.523C798.429 214.08 790.563 221.978 780.385 220.236L785.579 211.377C786.589 211.36 787.598 211.471 788.581 211.707C791.978 208.562 795.001 205.035 797.588 201.195C799.029 198.913 798.429 196.57 800.59 194.498C802.752 192.426 803.593 194.678 805.724 193.567C809.071 191.775 811.692 188.877 813.14 185.368C813.56 184.647 817.403 178.19 817.343 177.829C816.863 175.006 811.969 174.165 812.45 171.132C816.443 169.901 817.583 172.513 815.452 166.056C815.722 166.897 811.008 158.218 810.498 161.431C807.736 155.424 804.704 151.73 798.249 151.911C796.027 151.911 789.632 153.172 787.2 153.592C784.198 154.133 788.101 159.599 781.195 156.115C781.526 151.07 785.849 151.82 781.375 148.637C780.175 147.766 772.368 148.637 771.918 146.715C770.777 142.69 782.396 143.081 773.72 137.705C768.766 134.701 768.195 136.143 764.232 139.176C759.847 142.001 756.742 146.432 755.585 151.52C755.045 153.652 758.167 154.523 754.625 157.347C751.082 160.17 749.1 155.815 745.618 156.896C745.618 159.899 748.62 161.461 749.251 164.164C749.251 164.164 738.562 157.917 738.953 165.396C735.95 162.963 735.44 165.846 731.507 164.765C732.077 162.302 737.301 160.83 737.031 158.428C736.701 155.424 726.523 162.092 726.043 162.242C724.451 162.693 722.079 161.401 719.798 162.032C718.477 162.422 719.107 164.765 718.717 165.035C715.749 166.208 712.64 166.985 709.47 167.348C705.687 167.828 701.994 167.137 698.361 168.549C697.851 168.759 697.1 167.258 696.289 167.618C694.758 168.339 694.458 171.042 692.927 171.703C691.396 172.363 685.901 171.102 684.911 172.333C684.859 172.798 684.99 173.264 685.276 173.634C685.561 174.004 685.979 174.248 686.442 174.315C684.44 173.495 684.03 174.205 685.211 176.448C682.539 174.466 681.458 174.916 681.938 177.769C680.647 176.328 672.601 173.114 677.735 178.911C676.232 178.749 674.716 179.076 673.412 179.842C671.67 183.806 680.077 180.382 680.137 180.442C680.646 181.583 680.872 182.829 680.797 184.076C680.141 183.655 679.399 183.385 678.625 183.286C677.851 183.188 677.065 183.263 676.324 183.506C675.694 185.428 682.149 190.443 681.578 191.735C680.497 194.137 671.58 192.696 669.569 192.726C662.243 192.726 654.107 189.723 646.691 189.242C639.275 188.761 638.765 195.249 638.014 202.066C637.361 205.463 637.547 208.968 638.555 212.278C639.275 214.47 643.749 216.032 641.557 219.065C636.123 227.174 630.509 210.325 628.707 208.764L626.215 205.76C624.664 206.464 622.904 206.55 621.291 206.001C620.541 205.04 621.021 203.598 621.291 204.048C621.562 204.499 623.213 201.556 622.072 200.114C620.571 198.192 615.197 201.766 613.846 202.367C614.416 203.748 617.839 203.328 618.079 204.619C618.469 206.812 615.737 206.211 615.797 207.622C615.797 207.622 622.402 212.037 617.148 211.977C613.425 211.977 612.284 205.25 608.622 205.971C598.384 208.073 613.846 223.09 611.324 228.075C611.714 227.294 599.044 217.834 598.564 215.731C598.083 213.629 600.305 209.545 602.347 207.112C606.61 202.066 609.012 201.466 609.732 194.528C609.973 192.245 610.663 184.617 608.201 183.085C605.739 181.553 606.58 190.023 606.52 190.323C606.187 192.459 605.341 194.482 604.054 196.218C602.768 197.955 601.08 199.354 599.134 200.294C589.827 205.76 587.125 205.1 585.384 217.173C584.273 224.261 582.381 226.393 577.788 232.19C575.416 235.193 569.471 243.092 570.102 246.696C571.303 253.513 574.905 249.699 579.979 251.051C585.804 252.582 589.287 259.79 589.857 265.226C589.754 268.719 588.936 272.153 587.455 275.318C586.404 276.789 584.453 275.318 583.252 276.759C576.227 286.67 590.037 282.766 588.086 290.785C585.894 290.785 579.079 285.169 578.448 283.577C576.136 277.57 584.033 272.404 584.603 266.788C585.354 259.52 581.781 258.709 576.467 257.508C569.171 255.886 569.171 256.607 566.619 263.514C564.534 268.616 561.34 273.19 557.268 276.904C553.197 280.618 548.351 283.38 543.081 284.988C538.817 286.28 533.113 290.665 528.91 289.223C523.596 287.391 518.762 279.672 517.381 274.687C519.032 274.837 518.642 278.952 520.623 278.261C523.416 277.24 521.134 272.825 525.127 277.3C523.776 280.483 522.125 278.651 526.628 280.303C528.865 279.95 531.121 279.719 533.383 279.612C535.489 278.366 537.497 276.961 539.388 275.408C542.928 273.464 546.365 271.339 549.686 269.041C553.949 265.61 557.762 261.654 561.035 257.268C563.497 252.492 559.353 249.159 561.035 244.083C562.416 239.968 567.85 236.094 569.651 232.941C571.213 230.238 571.393 226.423 573.404 223.931C576.977 219.305 578.989 219.456 579.979 213.239C580.34 210.836 579.499 205.07 580.61 202.937C582.591 199.123 590.307 195.549 593.1 190.924C596.282 185.728 597.693 181.674 591.388 176.538C583.402 170.021 577.457 174.616 571.213 181.013C565.508 186.839 560.044 186.539 553.409 190.503C551.878 191.404 544.972 196.991 545.933 198.582C554.67 198.402 532.272 215.371 533.623 219.005C534.074 220.206 539.148 220.116 539.628 223.63C539.838 225.162 536.626 225.612 536.626 227.234C536.626 229.697 538.487 235.614 537.767 237.716C537.406 238.737 531.011 244.473 529.991 243.723C526.658 241.38 527.859 233.361 526.988 230.208C525.244 224.549 523.179 218.993 520.804 213.569C517.111 204.559 513.898 196.21 506.092 189.092C505.372 191.945 500.087 189.903 498.016 191.224C496.935 191.975 495.884 196.901 494.533 198.372C493.182 199.844 493.242 199.994 493.212 200.204C491.759 200.573 490.35 201.097 489.009 201.766L482.464 204.769C481.353 204.769 485.466 197.081 483.815 194.678C481.833 191.675 477.63 191.855 474.808 191.344C473.066 191.044 472.916 193.146 470.875 192.275C469.854 191.825 467.572 186.689 466.131 185.668C458.595 180.292 458.505 188.161 452.981 187.921C452.472 186.209 452.611 184.37 453.371 182.755C452.401 182.525 451.527 181.995 450.875 181.24C450.223 180.485 449.825 179.544 449.738 178.55C450.219 178.28 452.741 180.112 452.981 179.812C454.062 178.67 454.302 176.478 455.713 175.787C458.058 174.567 460.565 173.687 463.159 173.174C460.462 171.396 457.475 170.105 454.332 169.36C452.322 169.653 450.368 170.25 448.537 171.132C445.535 170.771 446.226 168.969 442.863 166.297C440.341 164.284 435.718 164.344 432.925 163.804C428.362 162.933 423.618 160.8 419.955 160.14C419.295 160.14 419.235 163.924 417.133 163.503C415.902 163.263 415.782 159.899 414.131 159.719C409.417 159.119 405.965 164.765 401.131 164.164C398.999 163.924 394.496 158.157 394.045 156.115C394.437 153.085 394.988 150.077 395.697 147.105C402.572 137.705 408.847 152.661 414.731 146.234C416.721 142.805 418.131 139.071 418.905 135.182C418.694 131.428 415.392 128.094 413.59 125.331C411.789 122.568 414.611 118.934 410.738 123.739C409.477 125.301 409.868 128.454 408.336 130.347C406.122 132.191 403.602 133.634 400.891 134.611C397.986 135.589 395.243 136.996 392.754 138.786C391.313 140.288 391.313 142.931 390.503 143.922C388.161 146.745 375.221 152.271 374.981 154.614C371.978 151.971 375.671 143.081 372.639 140.137C369.606 137.194 371.588 140.348 367.445 138.215C364.5 136.989 361.494 135.916 358.438 135.002C354.264 133.981 347.9 131.998 343.816 134.792C340.814 136.804 340.454 143.141 336.971 144.582C334.389 145.634 336.04 144.012 333.398 145.213C331.537 140.378 331.597 145.934 329.645 142.66C329.06 138.869 328.679 135.05 328.504 131.218C329.58 127.881 330.284 124.437 330.606 120.946C328.595 118.273 328.805 120.676 326.973 119.985C324.601 119.054 323.971 116.982 320.969 118.844C321.041 121.254 320.312 123.62 318.897 125.571C318.538 125.864 318.26 126.242 318.088 126.672C317.915 127.101 317.855 127.567 317.912 128.027C317.969 128.486 318.141 128.923 318.414 129.297C318.686 129.672 319.048 129.971 319.467 130.166C318.597 132.359 315.895 138.516 312.292 138.426C307.098 138.426 309.049 127.223 309.44 124.25C310.728 122.929 311.622 121.276 312.022 119.475C311.836 117.386 311.266 115.349 310.34 113.468C312.112 109.984 315.625 109.984 318.207 107.461C320.038 105.689 321.419 101.454 323.31 100.103C326.853 97.8505 330.516 100.103 334.419 97.0996C338.322 94.0963 338.142 88.9005 340.184 84.5157C342.585 79.3499 346.999 74.9651 349.671 69.8294C350.722 71.271 347.329 88.2698 346.248 88.6903C351.202 89.5613 346.639 93.1953 346.789 94.697C347.109 97.7402 347.671 100.753 348.47 103.707C350.361 110.975 348.47 114.219 353.124 120.315C362.311 132.329 378.643 131.368 386.419 117.673C389.932 111.456 388.611 103.377 390.352 96.6492C392.334 89.0807 395.757 83.7648 395.486 75.6258C395.578 72.2851 395.255 68.946 394.526 65.6848C394.315 65.0541 391.133 58.4467 391.073 59.2877C392.417 55.6119 393.511 51.8491 394.346 48.0251C395.096 48.7459 398.309 57.756 398.038 48.2954C398.038 45.5924 398.669 46.7337 397.498 44.3911C396.682 44.6073 395.815 44.4999 395.076 44.0914C394.338 43.6829 393.785 43.0047 393.535 42.1987C393.474 41.0704 393.344 39.947 393.145 38.8349C392.616 39.5942 391.824 40.1295 390.923 40.3366C389.842 39.796 390.923 36.4323 390.352 36.0719C388.761 35.1408 388.251 37.123 386.87 36.0719C384.738 34.6002 378.373 30.2754 375.821 30.2454C371.869 30.8609 368.026 32.0444 364.412 33.7593C360.149 36.4923 359.549 42.7693 355.886 46.5235C356.146 49.8672 355.015 51.0685 352.493 50.1275C350.368 50.0339 348.271 49.6083 346.278 48.8661C343.894 48.295 341.389 48.5056 339.133 49.4667C332.678 52.0196 329.495 59.3177 323.941 63.0418C320.856 64.8747 317.418 66.0315 313.853 66.4356C311.071 66.7789 308.419 67.8112 306.137 69.4389C305.687 69.7693 302.865 69.6792 301.724 70.4601C300.758 71.9415 299.876 73.4755 299.082 75.0552C297.971 76.3166 293.077 82.7137 290.885 83.4945C287.012 84.8761 285.091 81.6024 282.149 83.4945C280.888 84.3655 280.587 90.3422 279.747 91.7838C278.368 93.7829 276.698 95.5646 274.793 97.0696C267.137 103.076 252.155 101.454 242.548 98.7515C236.543 97.0696 231.349 92.0841 225.074 91.2131C212.224 89.3811 224.324 92.5045 222.672 96.8293C211.504 96.1386 220.841 111.155 215.587 114.849C213.185 116.561 213.996 108.242 213.305 106.71C212.615 105.179 205.98 102.115 205.739 101.394C206.345 100.482 206.773 99.4626 207 98.3911C203.998 98.3911 203.247 101.064 200.635 101.905C198.023 102.746 194.631 101.905 191.628 102.896C189.707 103.557 188.056 105.419 186.164 105.899C184.873 106.29 179.679 106.8 179.169 107.221C176.497 109.443 177.548 116.711 172.654 115.39C169.651 114.579 171.062 107.882 165.268 108.302C164.064 111.916 162.473 115.39 160.524 118.664C159.834 119.234 157.072 117.432 155.54 118.664C152.928 120.766 154.009 121.847 152.088 123.859C149.656 126.412 144.042 128.004 142.3 131.067C139.538 135.903 144.672 138.876 144.342 142.45C144.342 143.441 141.49 146.745 141.339 146.324L140.169 147.736C140.414 148.292 140.806 148.771 141.303 149.121C141.801 149.47 142.384 149.677 142.991 149.718C143.441 152.001 145.693 156.506 143.921 160.5C141.249 166.507 135.395 168.309 129.811 168.519C130.921 168.519 125.157 178.52 124.707 179.331C123.048 182.041 121.554 184.85 120.233 187.74C119.843 188.761 117.981 190.413 117.501 191.434C117.261 191.915 119.212 193.116 119.002 193.897C118.792 194.678 116.42 201.105 116.42 201.075C108.554 206.391 106.332 196.15 104.771 190.954C101.439 191.645 99.6972 195.879 97.2953 198.132C94.8935 200.384 91.2907 201.285 90.0297 204.469C89.4292 205.971 88.7087 210.025 90.0297 211.467C93.032 214.47 92.2514 211.106 94.8334 209.905C97.4225 214.612 99.5443 219.561 101.168 224.681C100.934 226.809 100.238 228.859 99.1267 230.688C98.5618 232.697 97.8079 234.648 96.875 236.515C95.0135 238.286 93.8727 235.163 93.1521 235.644C84.9257 241.26 89.4893 242.641 90.1498 248.948C90.6001 254.024 86.6371 256.066 83.6648 260.061C80.6925 264.055 81.353 270.332 84.1151 275.378C85.6763 278.381 91.5008 279.552 92.1914 282.766C92.6417 284.928 88.9188 288.442 88.6486 290.845C87.898 297.032 90.1198 292.947 91.2606 295.65C91.8634 297.916 92.2059 300.244 92.2814 302.588C93.1221 307.183 94.5632 312.349 93.002 315.052C92.3415 316.193 97.3854 319.617 97.8958 320.698C98.4062 321.779 93.5424 321.209 93.2722 321.149C96.2745 326.044 88.8288 323.431 88.2583 323.641C87.6879 323.852 86.2468 322.62 85.256 323.371C84.2652 324.122 86.2468 327.185 85.4061 328.627C83.2197 327.867 80.9529 327.364 78.6509 327.125C80.062 326.645 77.3298 332.411 77.3899 332.351C77.4499 332.291 71.7755 337.066 72.5862 336.856C67.5122 338.238 64.0596 331.21 60.2166 329.107C58.2951 328.056 51.0295 324.753 48.4475 329.948C45.4451 335.805 56.3736 335.715 56.2535 338.958C55.8632 348.689 42.7731 333.402 42.2026 339.589C42.4728 336.586 37.1287 331.03 34.2765 334.213C32.2049 336.496 35.9278 344.815 33.616 346.797C32.1148 348.058 31.8746 342.682 31.3342 342.923C31.2719 343.084 31.1729 343.228 31.0453 343.344C30.9176 343.46 30.7647 343.544 30.5986 343.591C30.4326 343.638 30.258 343.645 30.0886 343.612C29.9192 343.58 29.7598 343.508 29.6229 343.403C29.5485 342.634 29.5485 341.86 29.6229 341.091C29.6229 341.091 18.2441 343.073 18.4242 343.073C15.9022 343.073 15.4219 345.626 12.6597 342.773C13.5304 343.674 11.729 332.441 10.0777 335.324C9.57093 336.518 9.20809 337.769 8.99689 339.048C8.86854 338.589 8.63277 338.167 8.30909 337.817C7.9854 337.468 7.5831 337.2 7.13545 337.036C4.13312 338.057 7.13545 355.687 7.37563 358.6C8.10847 365.172 8.23911 371.797 7.76593 378.392C7.49572 381.005 3.11233 396.713 4.76361 397.704C7.76593 399.385 11.2787 400.347 12.5096 404.191C14.4611 410.197 14.0408 414.823 17.3133 421.04C21.2464 428.518 25.8399 435.756 25.8099 444.556C25.8099 447.108 24.0385 450.562 25.2995 452.815C26.5605 455.067 28.542 454.226 29.9531 455.368C31.9262 456.771 33.5243 458.638 34.6067 460.804C36.8786 463.393 38.2113 466.673 38.3897 470.114C38.6899 477.022 35.3873 474.829 35.3873 480.385C35.3873 483.659 39.2303 488.675 40.0409 491.858C40.7121 495.567 40.6612 499.371 39.8908 503.061C39.6206 506.244 38.81 508.767 41.0017 511.56C45.8655 517.747 44.8146 511.89 48.6276 511.56C50.7593 511.41 52.8609 515.134 56.7039 512.521C59.0457 510.929 59.7062 505.163 60.6069 500.988C61.2885 495.07 62.5968 489.241 64.5099 483.599C66.2813 479.545 69.7039 478.433 72.316 476.661C73.8171 475.64 76.8195 475.16 77.51 473.418C78.5908 470.775 75.1081 472.246 75.0181 470.144C75.0561 465.975 75.7971 461.843 77.2098 457.921C79.5816 454.316 82.3437 455.308 86.9673 453.806C91.4049 452.228 95.6224 450.088 99.517 447.439C98.8904 448.906 98.4662 450.452 98.2561 452.034C100.628 453.205 105.312 451.824 107.833 451.704C105.041 451.704 107.053 455.007 108.824 455.668C108.104 455.398 112.337 455.157 111.646 455.127C112.907 455.127 114.649 454.437 115.61 454.407C117.381 454.407 116.991 456.209 118.882 456.299C121.884 456.299 121.104 449.181 120.743 445.547C121.854 447.018 126.208 444.556 127.168 443.174C129.03 440.471 127.589 435.906 128.219 432.903C128.85 429.899 131.222 429.149 131.011 425.274C130.34 422.429 129.215 419.712 127.679 417.225C127.319 416.444 124.166 415.603 124.166 415.543C123.806 411.098 129.03 409.176 129.48 404.731C129.931 400.286 124.977 399.115 131.342 395.421C134.164 393.769 137.617 395.691 140.048 393.889C142.48 392.087 140.739 391.487 142.12 389.745C144.402 386.922 145.303 384.309 149.266 383.017C151.217 382.357 154.37 382.837 156.711 382.086C158.092 381.636 161.155 378.062 163.196 378.783C162.206 378.422 160.674 389.775 160.644 390.075C160.254 392.087 158.933 392.898 158.483 394.46C157.102 399.085 166.199 397.704 167.49 396.863C170.492 395.151 170.972 388.393 173.494 387.132C172.414 387.672 182.501 392.147 181.931 392.418C186.044 390.285 180.79 388.934 186.494 388.844C186.494 388.844 191.028 391.186 191.989 391.427C193.604 392.082 195.378 392.24 197.084 391.882C198.79 391.523 200.351 390.664 201.566 389.414C202.587 388.543 201.986 392.418 201.956 392.418C201.926 392.418 205.799 391.276 206.7 392.658C207.601 394.04 206.7 395.661 206.7 396.022C207.331 397.463 208.171 401.428 209.702 402.449C210.663 403.11 214.146 399.776 216.368 402.749C216.728 403.23 215.707 407.825 216.368 409.116C217.569 411.819 221.381 411.549 222.582 414.402C223.783 417.255 220.991 417.856 221.381 419.508C222.012 422.241 225.765 423.953 226.215 425.364C227.116 428.127 223.393 427.317 225.194 431.161C226.185 433.233 220.211 435.185 220.391 436.657C221.321 443.354 226.936 432.452 227.626 432.753C228.317 433.053 229.368 435.486 230.479 436.206C229.548 435.606 230.479 445.547 231.529 446.568C235.703 450.893 239.455 445.577 244.079 446.238C246.451 446.568 249.633 452.244 250.654 453.235C252.696 455.398 252.155 459.242 256.659 455.037C256.659 455.037 263.234 461.224 263.474 461.434C262.033 460.203 263.114 470.144 263.474 472.276C263.774 471.886 268.038 477.682 266.837 477.382C267.888 477.893 269.839 478.463 270.71 479.004C271.001 478.497 271.399 478.061 271.876 477.723C272.353 477.386 272.897 477.157 273.472 477.052C274.136 477.265 274.715 477.687 275.12 478.255C275.526 478.823 275.738 479.507 275.724 480.205C278.306 481.827 277.195 484.38 281.128 485.912C286.742 488.104 289.354 484.17 294.008 482.908C297.01 482.097 286.982 467.411 286.532 466.09C286.742 466.78 286.952 457.921 285.901 459.122C287.313 457.53 290.075 459.122 292.837 459.482C301.484 460.563 297.941 457.89 301.243 452.274C306.407 443.474 311.571 454.857 316.855 456.719C320.158 457.89 313.703 446.748 313.853 447.289C312.862 442.423 313.703 442.393 318.807 443.835L314.243 438.038C319.257 439.961 317.396 436.447 318.086 434.104C318.777 431.761 329.705 439.72 329.465 439.48C330.726 440.801 330.576 443.745 331.837 444.646C333.15 443.971 334.642 443.73 336.1 443.955C337.895 444.519 339.595 445.349 341.144 446.418C342.435 447.078 343.366 445.967 344.567 446.418C345.768 446.868 345.378 448.61 346.699 449.031C349.251 449.811 351.142 449.031 354.294 450.502C356.365 451.62 358.308 452.959 360.089 454.497C361.14 455.278 361.98 451.493 362.191 451.133C363.001 450.082 380.505 457.89 383.207 458.461C384.501 458.795 385.775 459.206 387.02 459.693C387.56 459.693 392.154 461.074 392.424 461.074C395.697 460.894 400.53 457.44 403.923 458.251C407.316 459.062 409.417 463.236 411.699 465.699C412.72 466.81 411.699 467.892 413.59 469.003C414.251 469.393 415.962 469.003 416.323 469.153C416.683 469.303 420.045 468.102 421.066 469.153C424.519 473.268 413.29 491.558 412.51 491.137C413.951 491.948 415.692 492.969 417.013 493.69C419.385 494.952 418.454 492.189 420.676 492.369C421.697 492.369 421.637 497.474 423.108 495.973C423.108 495.973 424.909 491.468 424.969 491.618C426.771 496.123 421.967 505.133 427.972 498.135C426.741 499.607 435.898 506.034 435.387 504.983C437.489 509.428 434.547 505.974 431.334 509.848C426.02 516.275 438.089 510.659 439.981 518.528C443.644 514.413 456.464 513.723 461.928 513.242C463.699 513.242 469.854 510.869 471.565 512.791C475.288 516.906 468.563 516.335 466.071 516.636C463.579 516.936 474.057 534.656 474.328 535.497C477.66 544.807 477.18 558.082 478.681 568.143C479.461 573.429 479.371 578.384 479.732 583.61C480.152 589.617 479.732 592.2 485.736 590.097C487.418 589.497 486.457 586.343 489.219 586.043C493.692 585.562 492.221 588.205 494.053 591.329C495.074 593.131 496.244 593.011 497.055 594.332C497.866 595.654 496.274 597.035 497.325 598.236C500.222 599.905 503.232 601.37 506.332 602.621C510.836 603.492 510.596 600.909 514.258 600.459C521.674 599.498 524.556 608.808 526.688 614.064C527.949 617.067 526.688 616.737 528.76 619.5C529.24 620.191 531.312 621.813 532.062 622.984C533.683 625.567 532.062 627.639 533.263 630.582C534.27 632.24 535.6 633.679 537.172 634.814C538.745 635.949 540.53 636.757 542.42 637.19C546.503 637.79 549.025 633.706 553.259 634.186C549.145 633.856 554.099 646.83 555.63 648.062C557.161 649.215 558.968 649.947 560.869 650.185C562.771 650.422 564.702 650.156 566.469 649.413C568.48 648.482 566.949 646.41 569.681 645.359C570.882 644.908 572.984 647.371 575.026 647.281C578.33 647.13 581.582 646.398 584.633 645.118C589.287 642.626 591.779 639.442 597.303 637.25C600.305 636.048 603.968 636.619 606.91 635.177C610.517 633.565 614.279 632.327 618.139 631.483C624.144 629.801 621.141 629.862 626.395 632.565C630.521 634.381 634.815 635.79 639.215 636.769C646.421 638.811 644.8 643.737 648.222 647.551C651.019 650.134 654.464 651.909 658.19 652.687C661.012 653.348 659.841 650.314 662.603 651.035C665.366 651.756 667.047 654.519 669.659 655.48C675.664 657.732 688.754 658.964 691.846 650.915C693.768 645.929 683.049 629.051 693.708 627.279C694.188 624.726 696.86 622.654 699.082 620.311C703.555 615.626 700.012 616.407 706.077 618.209C709.8 619.32 712.082 622.834 715.745 624.215C718.237 625.266 721.149 624.966 723.911 626.258C726.103 627.279 728.985 629.952 730.516 630.492C733.939 631.754 738.082 629.681 740.424 634.216C740.844 635.027 739.013 637.73 739.163 638.631C739.968 641.162 741.141 643.561 742.645 645.749C747.599 654.759 756.876 657.402 766.154 654.759C770.087 653.648 776.842 650.014 780.655 650.074C786.64 650.862 792.508 652.375 798.128 654.579C801.284 655.801 804.303 657.351 807.135 659.204C810.138 661.757 811.819 668.214 816.142 670.256C819.355 671.698 827.521 671.217 831.334 671.698C836.018 672.269 838.9 673.74 843.914 672.539C846.316 671.938 849.018 669.536 851.66 668.785C853.401 668.274 855.173 668.785 856.974 668.184C858.999 667.284 860.948 666.219 862.799 665.001C863.849 664.49 864.24 662.898 865.261 662.388C866.281 661.877 868.263 663.078 869.104 662.538C875.258 659.114 878.981 650.735 885.436 646.86C884.445 647.761 891.861 646.2 889.849 646.23C891.411 646.23 893.963 644.998 896.305 646.23C898.046 647.101 897.926 650.134 900.268 651.035C902.609 651.936 905.312 649.804 907.443 649.413C915.309 647.972 923.896 655.9 931.462 652.777C934.884 651.365 935.815 646.77 938.577 644.698C939.808 643.707 943.051 642.806 943.831 641.695C946.203 638.691 946.233 633.195 946.594 628.63C946.847 623.23 947.857 617.892 949.596 612.773C951.517 607.276 956.711 602.351 954.91 595.954C953.289 590.157 951.908 592.951 948.245 590.908C946.023 589.677 945.903 593.131 944.912 588.836C944.582 587.424 949.206 581.838 949.926 580.697C954.94 572.738 963.316 571.867 972.053 567.903C980.79 563.938 978.598 563.308 987.665 566.041C989.222 566.766 990.867 567.281 992.559 567.572C995.952 567.722 997.153 565.5 999.795 565.35C1004.22 565.404 1008.45 567.194 1011.56 570.335C1014.73 573.315 1017.69 576.506 1020.42 579.886C1024.77 585.893 1028.8 593.341 1034.23 599.948C1037.79 604.249 1041.09 608.762 1044.11 613.463C1046.24 616.917 1044.92 619.92 1049.9 621.212C1054.29 622.353 1055.52 619.11 1059.42 619.17C1061.76 619.17 1062.18 621.362 1064.31 621.332C1067.32 621.332 1069.87 618.569 1072.57 619.049C1071.49 618.869 1086.02 624.005 1087.04 623.194C1086.83 625.777 1091.91 632.655 1093.5 635.207C1094.55 636.769 1094.73 637.28 1094.67 637.37L1095.96 638.451C1096.62 639.248 1097.44 639.899 1098.36 640.365C1099.29 640.83 1100.3 641.099 1101.33 641.154C1102.74 641.334 1112.89 639.442 1114.87 637.43C1118.12 634.156 1117.1 628.42 1120.25 624.636C1126.79 616.977 1134.78 609.769 1139.91 619.89C1140.87 621.783 1143.37 624.005 1143.22 626.888C1143.07 629.771 1140.21 633.526 1139.82 637.37C1139.43 642.866 1141.92 647.041 1142.62 651.245C1142.94 656.762 1142.52 662.296 1141.38 667.704C1140.99 670.016 1140.12 671.428 1139.82 673.71C1139.52 675.993 1144.27 676.143 1139.58 680.167C1136.16 683.171 1131.75 679.597 1128.14 680.528C1125.14 681.339 1124.72 682.54 1123.04 684.282C1124.36 682.93 1117.79 692.962 1118.54 690.589C1116.53 696.986 1123.31 701.761 1125.65 708.609C1127.55 712.882 1129.12 717.289 1130.37 721.794C1130.22 720.833 1128.5 729.993 1129.32 728.581C1128.62 729.813 1126.31 730.954 1126.01 731.735C1124.48 734.978 1121.42 731.975 1123.67 737.171C1123.67 737.351 1127.03 741.075 1127.99 741.075C1131 741.075 1128.65 737.141 1127.54 735.279C1131.21 740.084 1136.04 718.4 1135.62 717.018C1138.78 716.768 1141.96 716.839 1145.11 717.229C1145.44 717.379 1147 720.772 1148.11 721.884C1147.78 721.193 1153.39 722.124 1154.29 722.454C1154.77 722.064 1157.48 720.592 1157.3 720.682C1158.35 720.41 1159.36 719.995 1160.3 719.451C1162.55 718.16 1164.35 714.285 1166 712.363C1174.2 702.903 1178.52 694.764 1179.72 683.381C1179.87 681.909 1178.58 680.378 1178.94 678.486C1179.12 677.555 1181.68 674.731 1182.19 673.44C1183.57 670.016 1182.64 666.863 1183.36 663.469C1184.32 660.617 1185.54 657.861 1187.02 655.24C1190.24 647.372 1191.93 638.963 1192 630.462C1192.24 626.348 1193.53 622.623 1193.38 618.689C1192.8 615.43 1192.63 612.109 1192.9 608.808C1193.47 605.565 1192.9 602.801 1193.35 599.618C1193.81 596.434 1195.16 594.602 1195.64 592.08C1196.48 588.053 1197 583.965 1197.2 579.856C1196.06 559.824 1180.47 544.567 1179.63 524.595C1179.24 515.585 1175.55 511.02 1171.38 503.331C1170.33 501.409 1168.2 500.508 1167.53 498.766C1166.54 496.123 1169.01 495.102 1167.53 492.759C1164.98 488.825 1159.58 490.477 1156.34 486.753C1155.65 487.654 1147.33 485.131 1144.93 484.951C1142.66 484.319 1140.26 484.257 1137.96 484.77C1136.19 485.161 1133.37 486.182 1131.78 486.602C1131.78 486.602 1137.99 512.011 1132.68 502.46C1130.64 498.796 1134.3 492.309 1130.01 499.817C1127.63 503.962 1128.62 506.454 1123.7 508.827C1123.55 508.827 1126.07 500.388 1126.07 499.817C1126.07 498.616 1121.93 500.868 1121.09 499.577C1119.74 497.474 1122.23 498.105 1122.02 495.642C1121.45 489.636 1117.64 499.427 1117.34 500.207C1117.34 500.508 1119.65 509.217 1115.08 506.695C1110.52 504.172 1115.38 495.492 1108.84 493.6C1106.53 492.939 1103.16 497.114 1100.4 497.625C1093.62 498.856 1092.36 495.733 1094.76 489.576C1096.17 485.972 1097.01 481.677 1098.63 478.313C1102.41 470.625 1105.9 465.038 1106.29 455.938C1106.44 452.605 1105.96 450.442 1106.29 447.259C1107.04 441.642 1110.52 437.107 1111.57 431.581C1112.8 425.184 1111.39 417.886 1112.47 411.249C1112.98 408.245 1114.99 405.693 1115.65 402.809C1116.59 398.665 1115.86 394.34 1117.25 390.285C1119.92 382.387 1127.78 378.632 1133.94 374.278C1136.76 372.265 1138.53 368.271 1141.2 366.679C1142.86 365.748 1145.98 367.82 1148.29 366.469C1149.4 365.838 1147.06 363.225 1148.71 361.874C1150.99 360.042 1152.64 361.694 1153.93 361.093C1154.37 361.325 1154.87 361.415 1155.36 361.35C1155.85 361.286 1156.31 361.07 1156.67 360.733C1157.44 360.362 1158.06 359.733 1158.41 358.953C1158.77 358.174 1158.84 357.295 1158.62 356.468C1158.67 355.823 1158.9 355.204 1159.28 354.676C1159.65 354.148 1160.16 353.73 1160.75 353.464C1162.48 353.875 1164.28 353.936 1166.03 353.645C1165.83 349.833 1165.83 346.013 1166.03 342.202C1168.2 337.997 1175.4 338.748 1178.82 336.526C1184.05 333.162 1181.44 332.351 1187.83 333.312C1190.83 333.763 1193.59 329.318 1191.37 335.835C1190.47 338.448 1182.64 340.19 1188.76 342.382C1192.72 343.794 1196.15 337.397 1197.92 334.393C1199.82 330.74 1201.97 327.218 1204.34 323.852C1206.26 321.449 1212.09 317.845 1211.97 313.79C1211.76 308.174 1207.59 314.211 1205.66 314.421C1199.66 315.082 1200.17 312.289 1198.37 307.303C1194.92 297.632 1198.13 288.202 1195.37 278.381C1193.94 274.845 1192.94 271.157 1192.36 267.389C1192.36 264.385 1194.41 262.764 1195.58 260.481C1197.26 256.799 1199.71 253.514 1202.75 250.84C1207.5 247.327 1207.95 254.535 1208.58 243.392C1212.78 244.143 1215.3 260.301 1220.29 258.829C1220.05 258.478 1219.89 258.08 1219.81 257.661C1219.74 257.243 1219.76 256.814 1219.86 256.402C1219.97 255.99 1220.16 255.606 1220.42 255.274C1220.69 254.941 1221.02 254.669 1221.4 254.474C1222.48 254.715 1223.89 259.34 1224.67 259.16C1228.63 258.259 1227.01 255.315 1226.83 251.952C1226.44 244.443 1226.14 235.253 1226.05 228.646C1226.05 227.685 1228.54 228.436 1227.85 226.483C1227.16 224.531 1220.86 221.498 1219.08 219.335C1217.49 217.587 1216.54 215.356 1216.36 212.999C1216.19 210.642 1216.81 208.294 1218.12 206.331C1220.53 203.328 1224.49 201.676 1225.45 205.01C1225.75 206.061 1223.14 207.743 1223.35 209.605C1225.26 213.208 1227.58 216.584 1230.25 219.666C1234.1 224.411 1238.66 226.063 1239.77 232.28C1240.88 238.497 1238.75 245.104 1240.52 251.741C1240.88 253.093 1243.25 254.144 1243.52 255.105C1243.89 258.597 1244.05 262.107 1244 265.617C1243.89 270.861 1244.6 276.091 1246.11 281.114C1247.87 287.886 1248.95 294.819 1249.32 301.807C1249.66 304.939 1249.48 308.106 1248.78 311.177C1248.78 311.598 1246.68 311.177 1246.47 312.048C1246.49 312.957 1246.59 313.861 1246.77 314.751C1246.01 316.956 1245.08 319.095 1243.97 321.149C1243.97 323.822 1245.08 322.83 1246.23 324.783C1247.37 326.735 1250.37 327.245 1251.48 329.888C1251.65 332.428 1251.65 334.977 1251.48 337.517C1252.56 347.758 1261.99 363.826 1269.49 371.545C1274.21 376.35 1280.66 378.662 1285.5 382.987C1290.33 387.312 1294.68 391.997 1299.31 396.112C1304.59 400.587 1311.44 404.131 1316.6 408.906Z" fill="#E9E9E9"/>
<path d="M488.918 151.131C489.969 153.203 487.267 153.233 489.068 155.816C489.399 156.266 492.071 155.395 492.731 155.816C494.863 157.828 497.835 165.367 500.897 163.625C503.299 162.273 502.999 151.341 504.17 148.398C506.312 143.007 509.807 138.259 514.318 134.612C522.634 127.675 531.461 127.434 540.708 123.17C543.711 121.818 546.203 119.956 549.055 118.635C550.136 118.124 551.877 119.085 553.138 118.424C554.399 117.764 555.15 115.571 556.14 115.421C559.473 114.28 560.133 115.421 562.655 117.013C563.196 117.373 571.903 115.241 570.491 112.448C572.293 111.517 578.087 114.19 579.979 114.28C580.699 114.28 581.54 112.778 582.981 112.958C585.053 113.229 587.365 113.979 589.556 114.37C594.69 115.211 629.157 121.398 623.393 106.291C620.901 99.7437 606.099 106.621 601.205 105.12C596.312 103.618 593.699 99.113 589.046 97.6413C587.034 97.0707 582.771 98.8727 580.039 98.6324C576.316 98.3021 571.032 98.6324 567.819 98.1819L564.967 98.4522C564.096 98.4522 562.595 96.2898 561.154 96.0195C560.914 96.0195 558.542 98.8427 557.882 99.0229C557.221 99.2031 556.531 97.0106 555.69 97.2809C555.69 97.2809 549.926 104.909 550.286 104.969C549.295 104.759 549.505 102.537 548.124 103.348C546.743 104.159 547.824 106.141 546.773 106.351C545.153 106.595 543.518 106.726 541.879 106.741C540.648 112.177 538.186 102.537 534.704 109.414C534.253 108.874 529.75 106.231 529.029 108.243C527.948 111.246 529.63 110.916 531.491 113.409C528.868 113.945 526.209 114.286 523.535 114.43C522.995 114.43 521.073 113.078 520.773 113.139C520.388 112.748 519.886 112.495 519.343 112.419C518.8 112.343 518.248 112.448 517.771 112.718L516.36 115.301C514.355 115.184 512.344 115.265 510.355 115.541C507.353 116.652 508.283 120.106 504.35 121.968C499.546 124.221 490.209 116.893 489.339 126.684C489.339 127.615 497.745 140.018 490.72 139.388C490.72 141.85 493.722 142.031 491.53 144.073C491.2 144.403 487.417 142.751 486.426 146.235C485.436 148.968 487.957 149.058 488.918 151.131Z" fill="#E9E9E9"/>
<path d="M77.8142 356.96C77.686 356.48 77.4258 355.968 77.2333 355.52C74.9297 349.984 69.8965 348 65.8324 348C60.3919 348 54.3998 351.648 53.5999 359.168V360.704C53.5999 360.768 53.6219 361.344 53.6533 361.632C54.1018 365.216 56.9296 369.024 59.0414 372.608C61.3135 376.448 63.6712 380.225 66.0069 384C67.4472 381.536 68.8823 379.04 70.2898 376.64C70.6734 375.936 71.1187 375.232 71.5027 374.56C71.7586 374.112 72.2476 373.664 72.471 373.248C74.743 369.088 78.4 364.896 78.4 360.768V359.072C78.4001 358.625 77.8454 357.057 77.8142 356.96ZM65.932 364.672C64.3328 364.672 62.5823 363.873 61.7183 361.664C61.5896 361.313 61.5999 360.608 61.5999 360.544V359.552C61.5999 356.736 63.9904 355.456 66.07 355.456C68.6301 355.456 70.6102 357.504 70.6102 360.065C70.6102 362.625 68.4922 364.672 65.932 364.672Z" fill="#E51F32"/>
<path d="M187.814 210.96C187.686 210.48 187.426 209.968 187.233 209.52C184.93 203.984 179.896 202 175.832 202C170.392 202 164.4 205.648 163.6 213.168V214.704C163.6 214.768 163.622 215.344 163.653 215.632C164.102 219.216 166.93 223.024 169.041 226.608C171.314 230.448 173.671 234.225 176.007 238C177.447 235.536 178.882 233.04 180.29 230.64C180.673 229.936 181.119 229.232 181.503 228.56C181.759 228.112 182.248 227.664 182.471 227.248C184.743 223.088 188.4 218.896 188.4 214.768V213.072C188.4 212.625 187.845 211.057 187.814 210.96ZM175.932 218.672C174.333 218.672 172.582 217.873 171.718 215.664C171.59 215.313 171.6 214.608 171.6 214.544V213.552C171.6 210.736 173.99 209.456 176.07 209.456C178.63 209.456 180.61 211.504 180.61 214.065C180.61 216.625 178.492 218.672 175.932 218.672Z" fill="#E51F32"/>
<path d="M241.814 266.96C241.686 266.48 241.426 265.968 241.233 265.52C238.93 259.984 233.896 258 229.832 258C224.392 258 218.4 261.648 217.6 269.168V270.704C217.6 270.768 217.622 271.344 217.653 271.632C218.102 275.216 220.93 279.024 223.041 282.608C225.314 286.448 227.671 290.225 230.007 294C231.447 291.536 232.882 289.04 234.29 286.64C234.673 285.936 235.119 285.232 235.503 284.56C235.759 284.112 236.248 283.664 236.471 283.248C238.743 279.088 242.4 274.896 242.4 270.768V269.072C242.4 268.625 241.845 267.057 241.814 266.96ZM229.932 274.672C228.333 274.672 226.582 273.873 225.718 271.664C225.59 271.313 225.6 270.608 225.6 270.544V269.552C225.6 266.736 227.99 265.456 230.07 265.456C232.63 265.456 234.61 267.504 234.61 270.065C234.61 272.625 232.492 274.672 229.932 274.672Z" fill="#E51F32"/>
<path d="M295.814 322.96C295.686 322.48 295.426 321.968 295.233 321.52C292.93 315.984 287.896 314 283.832 314C278.392 314 272.4 317.648 271.6 325.168V326.704C271.6 326.768 271.622 327.344 271.653 327.632C272.102 331.216 274.93 335.024 277.041 338.608C279.314 342.448 281.671 346.225 284.007 350C285.447 347.536 286.882 345.04 288.29 342.64C288.673 341.936 289.119 341.232 289.503 340.56C289.759 340.112 290.248 339.664 290.471 339.248C292.743 335.088 296.4 330.896 296.4 326.768V325.072C296.4 324.625 295.845 323.057 295.814 322.96ZM283.932 330.672C282.333 330.672 280.582 329.873 279.718 327.664C279.59 327.313 279.6 326.608 279.6 326.544V325.552C279.6 322.736 281.99 321.456 284.07 321.456C286.63 321.456 288.61 323.504 288.61 326.065C288.61 328.625 286.492 330.672 283.932 330.672Z" fill="#E51F32"/>
<path d="M467.814 333.96C467.686 333.48 467.426 332.968 467.233 332.52C464.93 326.984 459.896 325 455.832 325C450.392 325 444.4 328.648 443.6 336.168V337.704C443.6 337.768 443.622 338.344 443.653 338.632C444.102 342.216 446.93 346.024 449.041 349.608C451.314 353.448 453.671 357.225 456.007 361C457.447 358.536 458.882 356.04 460.29 353.64C460.673 352.936 461.119 352.232 461.503 351.56C461.759 351.112 462.248 350.664 462.471 350.248C464.743 346.088 468.4 341.896 468.4 337.768V336.072C468.4 335.625 467.845 334.057 467.814 333.96ZM455.932 341.672C454.333 341.672 452.582 340.873 451.718 338.664C451.59 338.313 451.6 337.608 451.6 337.544V336.552C451.6 333.736 453.99 332.456 456.07 332.456C458.63 332.456 460.61 334.504 460.61 337.065C460.61 339.625 458.492 341.672 455.932 341.672Z" fill="#E51F32"/>
<path d="M702.814 307.96C702.686 307.48 702.426 306.968 702.233 306.52C699.93 300.984 694.896 299 690.832 299C685.392 299 679.4 302.648 678.6 310.168V311.704C678.6 311.768 678.622 312.344 678.653 312.632C679.102 316.216 681.93 320.024 684.041 323.608C686.314 327.448 688.671 331.225 691.007 335C692.447 332.536 693.882 330.04 695.29 327.64C695.673 326.936 696.119 326.232 696.503 325.56C696.759 325.112 697.248 324.664 697.471 324.248C699.743 320.088 703.4 315.896 703.4 311.768V310.072C703.4 309.625 702.845 308.057 702.814 307.96ZM690.932 315.672C689.333 315.672 687.582 314.873 686.718 312.664C686.59 312.313 686.6 311.608 686.6 311.544V310.552C686.6 307.736 688.99 306.456 691.07 306.456C693.63 306.456 695.61 308.504 695.61 311.065C695.61 313.625 693.492 315.672 690.932 315.672Z" fill="#E51F32"/>
<path d="M937.814 281.96C937.686 281.48 937.426 280.968 937.233 280.52C934.93 274.984 929.896 273 925.832 273C920.392 273 914.4 276.648 913.6 284.168V285.704C913.6 285.768 913.622 286.344 913.653 286.632C914.102 290.216 916.93 294.024 919.041 297.608C921.314 301.448 923.671 305.225 926.007 309C927.447 306.536 928.882 304.04 930.29 301.64C930.673 300.936 931.119 300.232 931.503 299.56C931.759 299.112 932.248 298.664 932.471 298.248C934.743 294.088 938.4 289.896 938.4 285.768V284.072C938.4 283.625 937.845 282.057 937.814 281.96ZM925.932 289.672C924.333 289.672 922.582 288.873 921.718 286.664C921.59 286.313 921.6 285.608 921.6 285.544V284.552C921.6 281.736 923.99 280.456 926.07 280.456C928.63 280.456 930.61 282.504 930.61 285.065C930.61 287.625 928.492 289.672 925.932 289.672Z" fill="#E51F32"/>
<path d="M1163.81 272.96C1163.69 272.48 1163.43 271.968 1163.23 271.52C1160.93 265.984 1155.9 264 1151.83 264C1146.39 264 1140.4 267.648 1139.6 275.168V276.704C1139.6 276.768 1139.62 277.344 1139.65 277.632C1140.1 281.216 1142.93 285.024 1145.04 288.608C1147.31 292.448 1149.67 296.225 1152.01 300C1153.45 297.536 1154.88 295.04 1156.29 292.64C1156.67 291.936 1157.12 291.232 1157.5 290.56C1157.76 290.112 1158.25 289.664 1158.47 289.248C1160.74 285.088 1164.4 280.896 1164.4 276.768V275.072C1164.4 274.625 1163.85 273.057 1163.81 272.96ZM1151.93 280.672C1150.33 280.672 1148.58 279.873 1147.72 277.664C1147.59 277.313 1147.6 276.608 1147.6 276.544V275.552C1147.6 272.736 1149.99 271.456 1152.07 271.456C1154.63 271.456 1156.61 273.504 1156.61 276.065C1156.61 278.625 1154.49 280.672 1151.93 280.672Z" fill="#E51F32"/>
<path d="M1193.81 117.96C1193.69 117.48 1193.43 116.968 1193.23 116.52C1190.93 110.984 1185.9 109 1181.83 109C1176.39 109 1170.4 112.648 1169.6 120.168V121.704C1169.6 121.768 1169.62 122.344 1169.65 122.632C1170.1 126.216 1172.93 130.024 1175.04 133.608C1177.31 137.448 1179.67 141.225 1182.01 145C1183.45 142.536 1184.88 140.04 1186.29 137.64C1186.67 136.936 1187.12 136.232 1187.5 135.56C1187.76 135.112 1188.25 134.664 1188.47 134.248C1190.74 130.088 1194.4 125.896 1194.4 121.768V120.072C1194.4 119.625 1193.85 118.057 1193.81 117.96ZM1181.93 125.672C1180.33 125.672 1178.58 124.873 1177.72 122.664C1177.59 122.313 1177.6 121.608 1177.6 121.544V120.552C1177.6 117.736 1179.99 116.456 1182.07 116.456C1184.63 116.456 1186.61 118.504 1186.61 121.065C1186.61 123.625 1184.49 125.672 1181.93 125.672Z" fill="#E51F32"/>
<path d="M1164.81 658.96C1164.69 658.48 1164.43 657.968 1164.23 657.52C1161.93 651.984 1156.9 650 1152.83 650C1147.39 650 1141.4 653.648 1140.6 661.168V662.704C1140.6 662.768 1140.62 663.344 1140.65 663.632C1141.1 667.216 1143.93 671.024 1146.04 674.608C1148.31 678.448 1150.67 682.225 1153.01 686C1154.45 683.536 1155.88 681.04 1157.29 678.64C1157.67 677.936 1158.12 677.232 1158.5 676.56C1158.76 676.112 1159.25 675.664 1159.47 675.248C1161.74 671.088 1165.4 666.896 1165.4 662.768V661.072C1165.4 660.625 1164.85 659.057 1164.81 658.96ZM1152.93 666.672C1151.33 666.672 1149.58 665.873 1148.72 663.664C1148.59 663.313 1148.6 662.608 1148.6 662.544V661.552C1148.6 658.736 1150.99 657.456 1153.07 657.456C1155.63 657.456 1157.61 659.504 1157.61 662.065C1157.61 664.625 1155.49 666.672 1152.93 666.672Z" fill="#E51F32"/>
<path d="M743.814 546.96C743.686 546.48 743.426 545.968 743.233 545.52C740.93 539.984 735.896 538 731.832 538C726.392 538 720.4 541.648 719.6 549.168V550.704C719.6 550.768 719.622 551.344 719.653 551.632C720.102 555.216 722.93 559.024 725.041 562.608C727.314 566.448 729.671 570.225 732.007 574C733.447 571.536 734.882 569.04 736.29 566.64C736.673 565.936 737.119 565.232 737.503 564.56C737.759 564.112 738.248 563.664 738.471 563.248C740.743 559.088 744.4 554.896 744.4 550.768V549.072C744.4 548.625 743.845 547.057 743.814 546.96ZM731.932 554.672C730.333 554.672 728.582 553.873 727.718 551.664C727.59 551.313 727.6 550.608 727.6 550.544V549.552C727.6 546.736 729.99 545.456 732.07 545.456C734.63 545.456 736.61 547.504 736.61 550.065C736.61 552.625 734.492 554.672 731.932 554.672Z" fill="#E51F32"/>
<path d="M553.814 436.96C553.686 436.48 553.426 435.968 553.233 435.52C550.93 429.984 545.896 428 541.832 428C536.392 428 530.4 431.648 529.6 439.168V440.704C529.6 440.768 529.622 441.344 529.653 441.632C530.102 445.216 532.93 449.024 535.041 452.608C537.314 456.448 539.671 460.225 542.007 464C543.447 461.536 544.882 459.04 546.29 456.64C546.673 455.936 547.119 455.232 547.503 454.56C547.759 454.112 548.248 453.664 548.471 453.248C550.743 449.088 554.4 444.896 554.4 440.768V439.072C554.4 438.625 553.845 437.057 553.814 436.96ZM541.932 444.672C540.333 444.672 538.582 443.873 537.718 441.664C537.59 441.313 537.6 440.608 537.6 440.544V439.552C537.6 436.736 539.99 435.456 542.07 435.456C544.63 435.456 546.61 437.504 546.61 440.065C546.61 442.625 544.492 444.672 541.932 444.672Z" fill="#E51F32"/>
<path d="M362.814 196.96C362.686 196.48 362.426 195.968 362.233 195.52C359.93 189.984 354.896 188 350.832 188C345.392 188 339.4 191.648 338.6 199.168V200.704C338.6 200.768 338.622 201.344 338.653 201.632C339.102 205.216 341.93 209.024 344.041 212.608C346.314 216.448 348.671 220.225 351.007 224C352.447 221.536 353.882 219.04 355.29 216.64C355.673 215.936 356.119 215.232 356.503 214.56C356.759 214.112 357.248 213.664 357.471 213.248C359.743 209.088 363.4 204.896 363.4 200.768V199.072C363.4 198.625 362.845 197.057 362.814 196.96ZM350.932 204.672C349.333 204.672 347.582 203.873 346.718 201.664C346.59 201.313 346.6 200.608 346.6 200.544V199.552C346.6 196.736 348.99 195.456 351.07 195.456C353.63 195.456 355.61 197.504 355.61 200.065C355.61 202.625 353.492 204.672 350.932 204.672Z" fill="#E51F32"/>
<path d="M251.814 146.96C251.686 146.48 251.426 145.968 251.233 145.52C248.93 139.984 243.896 138 239.832 138C234.392 138 228.4 141.648 227.6 149.168V150.704C227.6 150.768 227.622 151.344 227.653 151.632C228.102 155.216 230.93 159.024 233.041 162.608C235.314 166.448 237.671 170.225 240.007 174C241.447 171.536 242.882 169.04 244.29 166.64C244.673 165.936 245.119 165.232 245.503 164.56C245.759 164.112 246.248 163.664 246.471 163.248C248.743 159.088 252.4 154.896 252.4 150.768V149.072C252.4 148.625 251.845 147.057 251.814 146.96ZM239.932 154.672C238.333 154.672 236.582 153.873 235.718 151.664C235.59 151.313 235.6 150.608 235.6 150.544V149.552C235.6 146.736 237.99 145.456 240.07 145.456C242.63 145.456 244.61 147.504 244.61 150.065C244.61 152.625 242.492 154.672 239.932 154.672Z" fill="#E51F32"/>
<path d="M140.814 266.96C140.686 266.48 140.426 265.968 140.233 265.52C137.93 259.984 132.896 258 128.832 258C123.392 258 117.4 261.648 116.6 269.168V270.704C116.6 270.768 116.622 271.344 116.653 271.632C117.102 275.216 119.93 279.024 122.041 282.608C124.314 286.448 126.671 290.225 129.007 294C130.447 291.536 131.882 289.04 133.29 286.64C133.673 285.936 134.119 285.232 134.503 284.56C134.759 284.112 135.248 283.664 135.471 283.248C137.743 279.088 141.4 274.896 141.4 270.768V269.072C141.4 268.625 140.845 267.057 140.814 266.96ZM128.932 274.672C127.333 274.672 125.582 273.873 124.718 271.664C124.59 271.313 124.6 270.608 124.6 270.544V269.552C124.6 266.736 126.99 265.456 129.07 265.456C131.63 265.456 133.61 267.504 133.61 270.065C133.61 272.625 131.492 274.672 128.932 274.672Z" fill="#E51F32"/>
<path d="M69.8142 426.96C69.686 426.48 69.4258 425.968 69.2333 425.52C66.9297 419.984 61.8965 418 57.8324 418C52.3919 418 46.3998 421.648 45.5999 429.168V430.704C45.5999 430.768 45.6219 431.344 45.6533 431.632C46.1018 435.216 48.9296 439.024 51.0414 442.608C53.3135 446.448 55.6712 450.225 58.0069 454C59.4472 451.536 60.8823 449.04 62.2898 446.64C62.6734 445.936 63.1187 445.232 63.5027 444.56C63.7586 444.112 64.2476 443.664 64.471 443.248C66.743 439.088 70.4 434.896 70.4 430.768V429.072C70.4001 428.625 69.8454 427.057 69.8142 426.96ZM57.932 434.672C56.3328 434.672 54.5823 433.873 53.7183 431.664C53.5896 431.313 53.5999 430.608 53.5999 430.544V429.552C53.5999 426.736 55.9904 425.456 58.07 425.456C60.6301 425.456 62.6102 427.504 62.6102 430.065C62.6102 432.625 60.4922 434.672 57.932 434.672Z" fill="#E51F32"/>
<path d="M311.814 230.96C311.686 230.48 311.426 229.968 311.233 229.52C308.93 223.984 303.896 222 299.832 222C294.392 222 288.4 225.648 287.6 233.168V234.704C287.6 234.768 287.622 235.344 287.653 235.632C288.102 239.216 290.93 243.024 293.041 246.608C295.314 250.448 297.671 254.225 300.007 258C301.447 255.536 302.882 253.04 304.29 250.64C304.673 249.936 305.119 249.232 305.503 248.56C305.759 248.112 306.248 247.664 306.471 247.248C308.743 243.088 312.4 238.896 312.4 234.768V233.072C312.4 232.625 311.845 231.057 311.814 230.96ZM299.932 238.672C298.333 238.672 296.582 237.873 295.718 235.664C295.59 235.313 295.6 234.608 295.6 234.544V233.552C295.6 230.736 297.99 229.456 300.07 229.456C302.63 229.456 304.61 231.504 304.61 234.065C304.61 236.625 302.492 238.672 299.932 238.672Z" fill="#E51F32"/>
<path d="M577.814 516.96C577.686 516.48 577.426 515.968 577.233 515.52C574.93 509.984 569.896 508 565.832 508C560.392 508 554.4 511.648 553.6 519.168V520.704C553.6 520.768 553.622 521.344 553.653 521.632C554.102 525.216 556.93 529.024 559.041 532.608C561.314 536.448 563.671 540.225 566.007 544C567.447 541.536 568.882 539.04 570.29 536.64C570.673 535.936 571.119 535.232 571.503 534.56C571.759 534.112 572.248 533.664 572.471 533.248C574.743 529.088 578.4 524.896 578.4 520.768V519.072C578.4 518.625 577.845 517.057 577.814 516.96ZM565.932 524.672C564.333 524.672 562.582 523.873 561.718 521.664C561.59 521.313 561.6 520.608 561.6 520.544V519.552C561.6 516.736 563.99 515.456 566.07 515.456C568.63 515.456 570.61 517.504 570.61 520.065C570.61 522.625 568.492 524.672 565.932 524.672Z" fill="#E51F32"/>
<path d="M956.814 416.96C956.686 416.48 956.426 415.968 956.233 415.52C953.93 409.984 948.896 408 944.832 408C939.392 408 933.4 411.648 932.6 419.168V420.704C932.6 420.768 932.622 421.344 932.653 421.632C933.102 425.216 935.93 429.024 938.041 432.608C940.314 436.448 942.671 440.225 945.007 444C946.447 441.536 947.882 439.04 949.29 436.64C949.673 435.936 950.119 435.232 950.503 434.56C950.759 434.112 951.248 433.664 951.471 433.248C953.743 429.088 957.4 424.896 957.4 420.768V419.072C957.4 418.625 956.845 417.057 956.814 416.96ZM944.932 424.672C943.333 424.672 941.582 423.873 940.718 421.664C940.59 421.313 940.6 420.608 940.6 420.544V419.552C940.6 416.736 942.99 415.456 945.07 415.456C947.63 415.456 949.61 417.504 949.61 420.065C949.61 422.625 947.492 424.672 944.932 424.672Z" fill="#E51F32"/>
<path d="M275.814 406.96C275.686 406.48 275.426 405.968 275.233 405.52C272.93 399.984 267.896 398 263.832 398C258.392 398 252.4 401.648 251.6 409.168V410.704C251.6 410.768 251.622 411.344 251.653 411.632C252.102 415.216 254.93 419.024 257.041 422.608C259.314 426.448 261.671 430.225 264.007 434C265.447 431.536 266.882 429.04 268.29 426.64C268.673 425.936 269.119 425.232 269.503 424.56C269.759 424.112 270.248 423.664 270.471 423.248C272.743 419.088 276.4 414.896 276.4 410.768V409.072C276.4 408.625 275.845 407.057 275.814 406.96ZM263.932 414.672C262.333 414.672 260.582 413.873 259.718 411.664C259.59 411.313 259.6 410.608 259.6 410.544V409.552C259.6 406.736 261.99 405.456 264.07 405.456C266.63 405.456 268.61 407.504 268.61 410.065C268.61 412.625 266.492 414.672 263.932 414.672Z" fill="#E51F32"/>
<path d="M394.814 286.96C394.686 286.48 394.426 285.968 394.233 285.52C391.93 279.984 386.896 278 382.832 278C377.392 278 371.4 281.648 370.6 289.168V290.704C370.6 290.768 370.622 291.344 370.653 291.632C371.102 295.216 373.93 299.024 376.041 302.608C378.314 306.448 380.671 310.225 383.007 314C384.447 311.536 385.882 309.04 387.29 306.64C387.673 305.936 388.119 305.232 388.503 304.56C388.759 304.112 389.248 303.664 389.471 303.248C391.743 299.088 395.4 294.896 395.4 290.768V289.072C395.4 288.625 394.845 287.057 394.814 286.96ZM382.932 294.672C381.333 294.672 379.582 293.873 378.718 291.664C378.59 291.313 378.6 290.608 378.6 290.544V289.552C378.6 286.736 380.99 285.456 383.07 285.456C385.63 285.456 387.61 287.504 387.61 290.065C387.61 292.625 385.492 294.672 382.932 294.672Z" fill="#E51F32"/>
<path d="M453.814 206.96C453.686 206.48 453.426 205.968 453.233 205.52C450.93 199.984 445.896 198 441.832 198C436.392 198 430.4 201.648 429.6 209.168V210.704C429.6 210.768 429.622 211.344 429.653 211.632C430.102 215.216 432.93 219.024 435.041 222.608C437.314 226.448 439.671 230.225 442.007 234C443.447 231.536 444.882 229.04 446.29 226.64C446.673 225.936 447.119 225.232 447.503 224.56C447.759 224.112 448.248 223.664 448.471 223.248C450.743 219.088 454.4 214.896 454.4 210.768V209.072C454.4 208.625 453.845 207.057 453.814 206.96ZM441.932 214.672C440.333 214.672 438.582 213.873 437.718 211.664C437.59 211.313 437.6 210.608 437.6 210.544V209.552C437.6 206.736 439.99 205.456 442.07 205.456C444.63 205.456 446.61 207.504 446.61 210.065C446.61 212.625 444.492 214.672 441.932 214.672Z" fill="#E51F32"/>
<path d="M242.814 206.96C242.686 206.48 242.426 205.968 242.233 205.52C239.93 199.984 234.896 198 230.832 198C225.392 198 219.4 201.648 218.6 209.168V210.704C218.6 210.768 218.622 211.344 218.653 211.632C219.102 215.216 221.93 219.024 224.041 222.608C226.314 226.448 228.671 230.225 231.007 234C232.447 231.536 233.882 229.04 235.29 226.64C235.673 225.936 236.119 225.232 236.503 224.56C236.759 224.112 237.248 223.664 237.471 223.248C239.743 219.088 243.4 214.896 243.4 210.768V209.072C243.4 208.625 242.845 207.057 242.814 206.96ZM230.932 214.672C229.333 214.672 227.582 213.873 226.718 211.664C226.59 211.313 226.6 210.608 226.6 210.544V209.552C226.6 206.736 228.99 205.456 231.07 205.456C233.63 205.456 235.61 207.504 235.61 210.065C235.61 212.625 233.492 214.672 230.932 214.672Z" fill="#E51F32"/>
<path d="M181.814 326.96C181.686 326.48 181.426 325.968 181.233 325.52C178.93 319.984 173.896 318 169.832 318C164.392 318 158.4 321.648 157.6 329.168V330.704C157.6 330.768 157.622 331.344 157.653 331.632C158.102 335.216 160.93 339.024 163.041 342.608C165.314 346.448 167.671 350.225 170.007 354C171.447 351.536 172.882 349.04 174.29 346.64C174.673 345.936 175.119 345.232 175.503 344.56C175.759 344.112 176.248 343.664 176.471 343.248C178.743 339.088 182.4 334.896 182.4 330.768V329.072C182.4 328.625 181.845 327.057 181.814 326.96ZM169.932 334.672C168.333 334.672 166.582 333.873 165.718 331.664C165.59 331.313 165.6 330.608 165.6 330.544V329.552C165.6 326.736 167.99 325.456 170.07 325.456C172.63 325.456 174.61 327.504 174.61 330.065C174.61 332.625 172.492 334.672 169.932 334.672Z" fill="#E51F32"/>
</g>
<defs>
<clipPath id="clip0">
<rect width="1335" height="754" fill="white"/>
</clipPath>
</defs>
</svg>
