<svg width="105" height="87" viewBox="0 0 105 87" fill="none" xmlns="http://www.w3.org/2000/svg">
<path opacity="0.1" d="M98.236 3.12398C84.1613 18.2813 77.3947 33.168 77.936 47.784C81.7253 46.972 84.1613 46.566 85.244 46.566C90.6573 46.566 95.2587 48.4607 99.048 52.25C102.567 55.7687 104.326 60.37 104.326 66.054C104.326 71.738 102.431 76.4746 98.642 80.264C94.582 84.324 89.8453 86.354 84.432 86.354C69.816 86.354 62.508 77.1513 62.508 58.746C62.508 34.9273 73.3347 15.4393 94.988 0.281991L98.236 3.12398ZM36.118 3.12398C21.7727 19.0933 15.006 33.98 15.818 47.784C19.6073 46.972 22.0433 46.566 23.126 46.566C28.5393 46.566 33.1407 48.4607 36.93 52.25C40.4487 55.7687 42.208 60.5053 42.208 66.46C42.208 71.6027 40.3133 76.3393 36.524 80.67C32.1933 84.4593 27.4567 86.354 22.314 86.354C7.698 86.354 0.390002 77.1513 0.390002 58.746C0.390002 34.9273 11.2167 15.4393 32.87 0.281991L36.118 3.12398Z" fill="black"/>
</svg>
