<svg width="154" height="597" viewBox="0 0 154 597" fill="none" xmlns="http://www.w3.org/2000/svg">
<path d="M153 5C138.333 92.3333 122.5 239 128 293C132.481 337 149 543 135 589" stroke="black"/>
<path d="M133 5C118.333 92.3333 102.5 239 108 293C112.481 337 129 543 115 589" stroke="black"/>
<path d="M113 5C98.3335 92.3333 82.5003 239 88.0001 293C92.4815 337 109 543 95.0002 589" stroke="black"/>
<path d="M93.0001 5C78.3335 92.3333 62.5003 239 68.0001 293C72.4815 337 89.0002 543 75.0002 589" stroke="black"/>
<path d="M73.0001 5C58.3335 92.3333 42.5003 239 48.0001 293C52.4815 337 69.0002 543 55.0002 589" stroke="black"/>
<path d="M32.0001 1C17.3335 88.3333 1.50033 239 7.00014 293C11.4815 337 28.0002 549 14.0002 595" stroke="white" stroke-width="10"/>
</svg>
