<svg width="17" height="11" viewBox="0 0 17 11" fill="none" xmlns="http://www.w3.org/2000/svg">
<path d="M16.3305 9.61294C16.2109 9.73256 16.0878 9.78149 15.9374 9.78149H1.06258C0.912048 9.78149 0.788946 9.73255 0.668943 9.61255C0.548833 9.49223 0.5 9.36905 0.5 9.21886C0.5 9.06865 0.548878 8.94551 0.668943 8.82539C0.668959 8.82538 0.668976 8.82536 0.668992 8.82535L8.10617 1.38817L16.3305 9.61294ZM16.3305 9.61294C16.451 9.49213 16.5 9.36866 16.5 9.21891C16.5 9.06913 16.4511 8.94584 16.3309 8.82545L16.3305 9.61294ZM8.89332 1.38783L8.89346 1.38797L16.3307 8.82526L8.89332 1.38783ZM8.89332 1.38783C8.77341 1.26783 8.65011 1.2188 8.5 1.2188C8.35016 1.2188 8.2269 1.26765 8.10636 1.38797L8.89332 1.38783Z" stroke="#313131"/>
</svg>
