<svg width="1335" height="754" fill="none" xmlns="http://www.w3.org/2000/svg"><g clip-path="url(#clip0)"><path d="M96.244 90.374c-.45-.421 6.725-2.313 5.644-1.622 3.933-2.523 3.483-3.694 4.774-8.29.84-3.003 0-6.216 1.531-9.01.36-.69 7.116-6.006 6.275-6.487-1.802-.96-6.005.991-8.617.24-3.152-.96-3.002-2.102-5.374-3.724-3.513-2.553-.27-2.402-5.194-3.934-2.132-.66-4.744.69-6.845 0-.961 7.268.21 31.475 7.806 32.827zM1251.87 589.436c-2.73-2.373-6.01-.33-7.99-1.502-1.98-1.171-1.38-3.363-3-4.595-2.37-1.742-5.01-1.682-7.29-3.454-7.57-6.006-17.03-35.349-.55-35.079 3.01 0 10.57 6.668 10.54 2.764 0-3.004-10.96-9.521-13.27-11.834-4.11-4.084-9.42-7.118-13.6-10.932-3.66-3.363-6.45-8.349-10.48-12.013a63.093 63.093 0 01-12.82-15.948c-3-5.196-5.22-12.013-8.7-16.788-2.25-3.004-5.53-3.364-7.9-6.007-1.47-1.562-2.79-6.487-4.23-7.358-4.33-2.613-7.9.991-5.41 5.346 3.01 5.316 6.55 1.141 5.86 7.658-.21 2.132 1.2 1.592.18 3.574-1.02 1.982-4.32 1.412-4.29 4.926 0 1.411 3.39 3.453 4.17 4.535a25.273 25.273 0 014.17 10.091c2.34 8.319 7.09 9.971 12.76 15.857 6.46 6.728 7.93 15.798 11.32 24.297a61.928 61.928 0 007.18 11.323c2.73 4.205 3.78 8.71 6.27 13.125 4.2 7.448 6.34 15.016 10.03 22.795 2.85 6.007 8.77 19.882 15.85 21.534 2.67-3.844-4.56-9.731-2.19-13.815 2.37-4.085 1.35 0 4.89-1.052a14.224 14.224 0 004.78-2.132c0 .33.63.991 3.27 1.952-.78-.3 4.44 6.397 3.96 2.403-.42-3.003-.99-7.478-3.51-9.671z" fill="#E9E9E9"/><path d="M1316.6 408.906c3.27 3.003 4.5 6.007 8.14 8.71.51.36 7.71 5.105 7.8 5.075-.42-4.745 2.34-6.997 2.76-11.292.34-3.574-1.41-6.638-1.5-10.151a48.982 48.982 0 00-4.05-15.017c-1.44-2.733-9.49-5.136-9.58-6.307a2.345 2.345 0 012.47-1.802c.49-2.523.85-5.069 1.08-7.629.27 0 4.44-5.826 3.99-4.595.13-.499.38-.96.72-1.351a6.808 6.808 0 01-1.98-2.283 42.877 42.877 0 00-3.85-4.505c-5.52-6.006-9.81-11.412-4.77-20.272 2.22-3.905 9.25-6.518 4.59-12.704-1.71-2.253-4.86-1.893-7.02-3.304a22.833 22.833 0 01-9.64-12.614 66.431 66.431 0 01-1.53-7.118c-.39-1.622-5.13-1.111-3-4.175 4.23-6.006 3.45 7.539 7.98 3.184 5.05-4.835-5.49-11.293-8.37-11.713-1.86-.27-1.26 1.982-4.45.931 2.11.691-5.1-4.835-4.86-4.475-2.34-3.664-4.29-15.017-11.35-7.088-1.11 1.261 3.15 7.749-3.24 5.286-5.07-1.982-7.69-15.437-9.43-19.612-3.15-7.628-14.41-18.56-7.71-26.189 2 1.081 3.52.911 4.56-.511.42-.267.73-.683.87-1.166.13-.484.08-.999-.15-1.446-.78 1.742-1.59-8.109-1.59-7.899-.24-10.782 1.8-6.938 7.44.751 3.61 1.381-1.02-10.152-1.08-11.083-.27-4.082.71-8.15 2.83-11.653 1.52-3.181 3.36-6.2 5.49-9.01 3.18-1.982 10.51 2.073 12.58-1.231 1.65-2.673-3.54-6.007-4.59-9.25-1.77-5.586-.45-12.194-2.53-17.81a70.299 70.299 0 01-5.01-16.158c-.99-7.989 0-16.669-.96-25.078-.42-3.874-3.66-9.911-2.79-13.245a50.646 50.646 0 017.44-7.388c1.96-1.802 5.23-3.003 5.17-5.526a72.272 72.272 0 00-6.55-7.298c-3.84-1.442-3.48 1.592-6.57 1.742.51 0-4.57-7.959-4.03-.39-.48-.27-7.98-3.334-6.87.72-.96-.51-8.23-9.22-9.19-3.484-2.19-6.006-5.58 1.322-6.66 1.592-1.75-.099-3.48-.31-5.2-.63-1.38.54-2.74 1.162-4.05 1.862 1.44-.811-4.59 10.872-3.9 2.192.33-4.295 9-6.007 10.32-10.452 1.84-5.676-5.25-19.701-10.08-22.465-4.84-2.763-9.01-.69-12.64-6.427-.57-.84-2.16-.6-2.43-1.622-.61-2.252 3.3-2.252 1.17-5.346 2.61-.66 3.69 3.995 6 4.776 2.12.469 4.31.52 6.46.15 2.28-.3.75 2.763 3.9-.39 3.15-3.154-1.38-6.458-.48-8.8 1.5-3.965 7.62-5.797 11.32-6.277 2.76-.36 4.83 1.952 8.07 0 2.47-1.502 1.68-4.295 3.64-6.007 3-3.003 9-3.003 11.37-6.607 2.38-3.604-1.26-7.749-4.05-9.01-1.89-.781-3.99.72-6.72-.961a4.884 4.884 0 00-2.44-4.926h-2.76c-3-1.832-7.14 2.193-11.2.751 0-2.493 5.02-3.994 6.19-6.007.72-1.261.78-3.243 1.65-5.045a3.43 3.43 0 00-1.39-.927 3.45 3.45 0 00-1.67-.156c-.56.086-1.08.31-1.54.65a3.36 3.36 0 00-1.04 1.304c-2.14-.721 7.62-11.383-2.5-7.388-4.26-9.01-.48-6.968-6.75-3.514a44.339 44.339 0 01-8.47 4.324c-3.84 1.352-5.46 1.472-6.63 5.286-.42 1.352.72 3.484.42 4.385-.69 2.133-2.25 2.763-2.83 3.784 0 .24-2.58-2.432-3.24.901-.84 4.115 3.67 5.046 6.01 5.707.81.21 7.92 0 6.84-.931 6.52 6.006-15.01 9.01-17.77 2.643-.12 3.684-1.12 4.284-3 1.802a4.185 4.185 0 00-3.25-1.142s-7.47 3.995-1.89 4.836c.3.99-5.34-1.111-6-.961a59.212 59.212 0 00-7.96 5.255c.24-.15-2.34 3.514-2.04 3.334-.87.54-3-1.02-3.54-.6-2.01 1.231-2.16 2.402-4.21 3.423-.93.45-2.31 0-3.45.661-3.45 1.832-5.1 4.475-8.05 6.007-2.94 1.531-6.3 1.502-9.45 4.355-4 3.604-10.51 6.547-15.22 11.412-5.86 6.007-6.37 16.008-12.01 21.024-2.56 2.192-7.96 5.316-7.45 8.259a37.471 37.471 0 016.22 5.736c1.35.45 4.74-2.282 7.86-1.471 3.66.99 8.38 4.955 7.45 8.74-1.26 5.015-19.52 8.619-23.54 3.663 2.16-1.862 7.11-.901 6.48-5.045-.63-4.145-7.56-2.133-9 0-2.19 3.273 1.62 4.775 1.95 8.199.15 2.281-.22 4.566-1.07 6.687a15.19 15.19 0 01-3.86 5.566c-2.67 2.734-6.66 3.004-8.79 5.256-1.2 1.232-.36 2.703-1.35 4.025-3.88 5.316-4.72 15.647-14.05 15.016-4.33-.24-5.65-4.595-9.01-6.457-5.01-3.003-8.29-1.952-13.57 0a37.37 37.37 0 00-20 14.837c-2.31 3.814-2.76 10.421-8.01 11.803-4.3 1.141-7.12-3.003-11.47-2.673-2.31.15-9.43 6.457-11.53 4.625-3.78-3.274 1.44-5.436 1.17-8.589-5.49-3.274-13.51 3.183-18.49 5.015-4.087 1.502-9.522 1.622-14.055 3.574-2.702 1.171-5.074 2.793-7.686 4.115-2.012 1.021-9.998 2.673-11.319 3.754-5.284 4.204 2.732 1.682 0 8.619-1.501-.24-3.002-4.535-4.623-1.381-.781 1.622-1.171 8.649 1.17 9.37a6.996 6.996 0 012.733-3.754c1.11 0 1.951 7.629 2.161 7.989 1.681 2.763 5.645 3.003 7.536 5.496-2.432.811-15.882-.691-15.672 3.994 0 1.772 7.506 5.256 4.053 6.277-3.453 1.022-7.116-4.985-12.46-2.492-5.344 2.492-2.552 8.589-6.004 10.601-4.234 2.583-8.167-3.423-10.839-4.024-3.662-.871-2.552-3.003-4.113 2.253-1.171 3.964 5.224 16.728 2.102 19.161-.601.18-5.014-3.214-4.444 0-6.635-.511-12.279-8.41-15.311-12.975-.541-.811-2.853.751-3.363-2.012-.36-1.922 2.342-2.703 2.282-3.694-.24-4.745-1.832-5.616-3.933-9.22-3.003-5.016-2.793-9.611-9.398-12.314a12.734 12.734 0 00-6.905-.901c-2.102.601-2.252 2.433-3.183 2.793-1.561.571-12.519 1.922-13.09-3.754a40.901 40.901 0 00-5.554 7.268c-.811 3.965 4.023 4.685 3.993 8.56 0 6.667-2.552 2.162-4.473 1.501-1.922-.66-1.081 2.733-2.402 2.793a51.276 51.276 0 01-6.245-.27c-3.081-.02-6.133-.6-9.007-1.712-1.771-.931-1.921-4.054-3.603-4.835-9.007-4.085-21.406 3.394-30.023 1.832-1.831-.331-1.952-2.673-4.023-3.003-.991 0-1.051 2.072-.811 2.072a2.793 2.793 0 01-2.642 1.411c-2.672-.39-3.002-3.003-4.233-3.453-2.012-.841-10.989-2.223-9.427 4.955.57 2.583 6.274-3.544 7.655-.571-7.475 5.557-15.341 13.455-25.519 11.713l5.194-8.859c1.01-.017 2.019.094 3.002.33a60.049 60.049 0 009.007-10.512c1.441-2.282.841-4.625 3.002-6.697 2.162-2.072 3.003.18 5.134-.931a16.393 16.393 0 007.416-8.199c.42-.721 4.263-7.178 4.203-7.539-.48-2.823-5.374-3.664-4.893-6.697 3.993-1.231 5.133 1.381 3.002-5.076.27.841-4.444-7.838-4.954-4.625-2.762-6.007-5.794-9.701-12.249-9.52-2.222 0-8.617 1.261-11.049 1.681-3.002.541.901 6.007-6.005 2.523.331-5.045 4.654-4.295.18-7.478-1.2-.871-9.007 0-9.457-1.922-1.141-4.025 10.478-3.634 1.802-9.01-4.954-3.004-5.525-1.562-9.488 1.471a19.945 19.945 0 00-8.647 12.344c-.54 2.132 2.582 3.003-.96 5.827-3.543 2.823-5.525-1.532-9.007-.451 0 3.003 3.002 4.565 3.633 7.268 0 0-10.689-6.247-10.298 1.232-3.003-2.433-3.513.45-7.446-.631.57-2.463 5.794-3.935 5.524-6.337-.33-3.004-10.508 3.664-10.988 3.814-1.592.451-3.964-.841-6.245-.21-1.321.39-.691 2.733-1.081 3.003a36.435 36.435 0 01-9.247 2.313c-3.783.48-7.476-.211-11.109 1.201-.51.21-1.261-1.291-2.072-.931-1.531.721-1.831 3.424-3.362 4.085-1.531.66-7.026-.601-8.016.63a1.8 1.8 0 001.531 1.982c-2.002-.82-2.412-.11-1.231 2.133-2.672-1.982-3.753-1.532-3.273 1.321-1.291-1.441-9.337-4.655-4.203 1.142a7.046 7.046 0 00-4.323.931c-1.742 3.964 6.665.54 6.725.6a7.772 7.772 0 01.66 3.634 5.256 5.256 0 00-4.473-.57c-.63 1.922 5.825 6.937 5.254 8.229-1.081 2.402-9.998.961-12.009.991-7.326 0-15.462-3.003-22.878-3.484-7.416-.481-7.926 6.007-8.677 12.824a21.27 21.27 0 00.541 10.212c.72 2.192 5.194 3.754 3.002 6.787-5.434 8.109-11.048-8.74-12.85-10.301l-2.492-3.004a6.693 6.693 0 01-4.924.241c-.75-.961-.27-2.403 0-1.953.271.451 1.922-2.492.781-3.934-1.501-1.922-6.875 1.652-8.226 2.253.57 1.381 3.993.961 4.233 2.252.39 2.193-2.342 1.592-2.282 3.003 0 0 6.605 4.415 1.351 4.355-3.723 0-4.864-6.727-8.526-6.006-10.238 2.102 5.224 17.119 2.702 22.104.39-.781-12.28-10.241-12.76-12.344-.481-2.102 1.741-6.186 3.783-8.619 4.263-5.046 6.665-5.646 7.385-12.584.241-2.283.931-9.911-1.531-11.443-2.462-1.532-1.621 6.938-1.681 7.238a13.351 13.351 0 01-2.466 5.895 13.343 13.343 0 01-4.92 4.076c-9.307 5.466-12.009 4.806-13.75 16.879-1.111 7.088-3.003 9.22-7.596 15.017-2.372 3.003-8.317 10.902-7.686 14.506 1.201 6.817 4.803 3.003 9.877 4.355 5.825 1.531 9.308 8.739 9.878 14.175a25.59 25.59 0 01-2.402 10.092c-1.051 1.471-3.002 0-4.203 1.441-7.025 9.911 6.785 6.007 4.834 14.026-2.192 0-9.007-5.616-9.638-7.208-2.312-6.007 5.585-11.173 6.155-16.789.751-7.268-2.822-8.079-8.136-9.28-7.296-1.622-7.296-.901-9.848 6.006a37.137 37.137 0 01-23.538 21.474c-4.264 1.292-9.968 5.677-14.171 4.235-5.314-1.832-10.148-9.551-11.529-14.536 1.651.15 1.261 4.265 3.242 3.574 2.793-1.021.511-5.436 4.504-.961-1.351 3.183-3.002 1.351 1.501 3.003a62.203 62.203 0 016.755-.691 47.86 47.86 0 006.005-4.204 117.461 117.461 0 0010.298-6.367 65.057 65.057 0 0011.349-11.773c2.462-4.776-1.682-8.109 0-13.185 1.381-4.115 6.815-7.989 8.616-11.142 1.562-2.703 1.742-6.518 3.753-9.01 3.573-4.626 5.585-4.475 6.575-10.692.361-2.403-.48-8.169.631-10.302 1.981-3.814 9.697-7.388 12.49-12.013 3.182-5.196 4.593-9.25-1.712-14.386-7.986-6.517-13.931-1.922-20.175 4.475-5.705 5.826-11.169 5.526-17.804 9.49-1.531.901-8.437 6.488-7.476 8.079 8.737-.18-13.661 16.789-12.31 20.423.451 1.201 5.525 1.111 6.005 4.625.21 1.532-3.002 1.982-3.002 3.604 0 2.463 1.861 8.38 1.141 10.482-.361 1.021-6.756 6.757-7.776 6.007-3.333-2.343-2.132-10.362-3.003-13.515a156.114 156.114 0 00-6.184-16.639c-3.693-9.01-6.906-17.359-14.712-24.477-.72 2.853-6.005.811-8.076 2.132-1.081.751-2.132 5.677-3.483 7.148-1.351 1.472-1.291 1.622-1.321 1.832a20.988 20.988 0 00-4.203 1.562l-6.545 3.003c-1.111 0 3.002-7.688 1.351-10.091-1.982-3.003-6.185-2.823-9.007-3.334-1.742-.3-1.892 1.802-3.933.931-1.021-.45-3.303-5.586-4.744-6.607-7.536-5.376-7.626 2.493-13.15 2.253a7.268 7.268 0 01.39-5.166 4.745 4.745 0 01-3.633-4.205c.481-.27 3.003 1.562 3.243 1.262 1.081-1.142 1.321-3.334 2.732-4.025a27.832 27.832 0 017.446-2.613 27.603 27.603 0 00-8.827-3.814 20 20 0 00-5.795 1.772c-3.002-.361-2.311-2.163-5.674-4.835-2.522-2.013-7.145-1.953-9.938-2.493-4.563-.871-9.307-3.004-12.97-3.664-.66 0-.72 3.784-2.822 3.363-1.231-.24-1.351-3.604-3.002-3.784-4.714-.6-8.166 5.046-13 4.445-2.132-.24-6.635-6.007-7.086-8.049.392-3.03.943-6.038 1.652-9.01 6.875-9.4 13.15 5.556 19.034-.871a36.028 36.028 0 004.174-11.052c-.211-3.754-3.513-7.088-5.315-9.851-1.801-2.763 1.021-6.397-2.852-1.592-1.261 1.562-.87 4.715-2.402 6.608a24.74 24.74 0 01-7.445 4.264 30.73 30.73 0 00-8.137 4.175c-1.441 1.502-1.441 4.145-2.251 5.136-2.342 2.823-15.282 8.349-15.522 10.692-3.003-2.643.69-11.533-2.342-14.477-3.033-2.943-1.051.211-5.194-1.922a92.113 92.113 0 00-9.007-3.213c-4.174-1.021-10.538-3.004-14.622-.21-3.002 2.012-3.362 8.349-6.845 9.79-2.582 1.052-.931-.57-3.573.631-1.861-4.835-1.801.721-3.753-2.553a107.04 107.04 0 01-1.141-11.442 47.76 47.76 0 002.102-10.272c-2.011-2.673-1.801-.27-3.633-.961-2.372-.931-3.002-3.003-6.004-1.141a10.904 10.904 0 01-2.072 6.727 2.728 2.728 0 00-.985 2.456c.057.459.229.896.502 1.27.272.375.634.674 1.053.869-.87 2.193-3.572 8.35-7.175 8.26-5.194 0-3.243-11.203-2.852-14.176a9.92 9.92 0 002.582-4.775 17.019 17.019 0 00-1.682-6.007c1.772-3.484 5.285-3.484 7.867-6.007 1.831-1.772 3.212-6.007 5.103-7.358 3.543-2.252 7.206 0 11.109-3.003 3.903-3.004 3.723-8.2 5.765-12.584 2.401-5.166 6.815-9.55 9.487-14.687 1.051 1.442-2.342 18.44-3.423 18.861 4.954.871.391 4.505.541 6.007.32 3.043.882 6.056 1.681 9.01 1.891 7.268 0 10.512 4.654 16.608 9.187 12.014 25.519 11.053 33.295-2.642 3.513-6.217 2.192-14.296 3.933-21.024 1.982-7.568 5.405-12.884 5.134-21.023.092-3.34-.231-6.68-.96-9.941-.211-.63-3.393-7.238-3.453-6.397a86.592 86.592 0 003.273-11.263c.75.72 3.963 9.731 3.692.27 0-2.703.631-1.561-.54-3.904a3.272 3.272 0 01-3.963-2.192 27.536 27.536 0 00-.39-3.364 3.726 3.726 0 01-2.222 1.502c-1.081-.541 0-3.905-.571-4.265-1.591-.931-2.101 1.051-3.482 0-2.132-1.472-8.497-5.797-11.049-5.827a41.517 41.517 0 00-11.409 3.514c-4.263 2.733-4.863 9.01-8.526 12.764.26 3.344-.871 4.545-3.393 3.604a20.378 20.378 0 01-6.215-1.26 11.434 11.434 0 00-7.145.6c-6.455 2.553-9.638 9.85-15.192 13.575a25.336 25.336 0 01-10.088 3.394 16.839 16.839 0 00-7.716 3.003c-.45.33-3.272.24-4.413 1.021a47.31 47.31 0 00-2.642 4.595c-1.111 1.262-6.005 7.659-8.197 8.44-3.873 1.381-5.794-1.893-8.736 0-1.261.87-1.562 6.847-2.402 8.289a24.402 24.402 0 01-4.954 5.286c-7.656 6.006-22.638 4.384-32.245 1.681-6.005-1.681-11.199-6.667-17.474-7.538-12.85-1.832-.75 1.291-2.402 5.616-11.168-.69-1.831 14.326-7.085 18.02-2.402 1.712-1.591-6.607-2.282-8.139-.69-1.531-7.325-4.595-7.566-5.316A8.676 8.676 0 00207 98.391c-3.002 0-3.753 2.673-6.365 3.514-2.612.841-6.004 0-9.007.991-1.921.661-3.572 2.523-5.464 3.003-1.291.391-6.485.901-6.995 1.322-2.672 2.222-1.621 9.49-6.515 8.169-3.003-.811-1.592-7.508-7.386-7.088a53.019 53.019 0 01-4.744 10.362c-.69.57-3.452-1.232-4.984 0-2.612 2.102-1.531 3.183-3.452 5.195-2.432 2.553-8.046 4.145-9.788 7.208-2.762 4.836 2.372 7.809 2.042 11.383 0 .991-2.852 4.295-3.003 3.874l-1.17 1.412a3.332 3.332 0 002.822 1.982c.45 2.283 2.702 6.788.93 10.782-2.672 6.007-8.526 7.809-14.11 8.019 1.11 0-4.654 10.001-5.104 10.812a79.046 79.046 0 00-4.474 8.409c-.39 1.021-2.252 2.673-2.732 3.694-.24.481 1.711 1.682 1.501 2.463-.21.781-2.582 7.208-2.582 7.178-7.866 5.316-10.088-4.925-11.649-10.121-3.332.691-5.074 4.925-7.476 7.178-2.401 2.252-6.004 3.153-7.265 6.337-.6 1.502-1.321 5.556 0 6.998 3.002 3.003 2.221-.361 4.803-1.562a82.244 82.244 0 016.335 14.776 14.65 14.65 0 01-2.041 6.007 33.052 33.052 0 01-2.252 5.827c-1.862 1.771-3.002-1.352-3.723-.871-8.226 5.616-3.663 6.997-3.002 13.304.45 5.076-3.513 7.118-6.485 11.113-2.973 3.994-2.312 10.271.45 15.317 1.561 3.003 7.386 4.174 8.076 7.388.45 2.162-3.272 5.676-3.542 8.079-.751 6.187 1.47 2.102 2.612 4.805a30.853 30.853 0 011.02 6.938c.841 4.595 2.282 9.761.721 12.464-.66 1.141 4.383 4.565 4.894 5.646.51 1.081-4.354.511-4.624.451 3.002 4.895-4.443 2.282-5.014 2.492-.57.211-2.011-1.021-3.002-.27-.99.751.99 3.814.15 5.256a30.012 30.012 0 00-6.755-1.502c1.411-.48-1.321 5.286-1.261 5.226.06-.06-5.615 4.715-4.804 4.505-5.074 1.382-8.526-5.646-12.37-7.749-1.92-1.051-9.187-4.354-11.769.841-3.002 5.857 7.927 5.767 7.806 9.01-.39 9.731-13.48-5.556-14.05.631.27-3.003-5.074-8.559-7.927-5.376-2.071 2.283 1.652 10.602-.66 12.584-1.501 1.261-1.741-4.115-2.282-3.874a1.11 1.11 0 01-1.711.48 12.002 12.002 0 010-2.312s-11.379 1.982-11.199 1.982c-2.522 0-3.002 2.553-5.764-.3.87.901-.931-10.332-2.582-7.449a16.355 16.355 0 00-1.081 3.724 3.005 3.005 0 00-1.862-2.012c-3.002 1.021 0 18.651.24 21.564a108.43 108.43 0 01.39 19.792c-.27 2.613-4.653 18.321-3.001 19.312 3.002 1.681 6.515 2.643 7.746 6.487 1.951 6.006 1.53 10.632 4.803 16.849 3.933 7.478 8.527 14.716 8.497 23.516 0 2.552-1.771 6.006-.51 8.259 1.26 2.252 3.242 1.411 4.653 2.553a14.773 14.773 0 014.654 5.436 15.317 15.317 0 013.783 9.31c.3 6.908-3.003 4.715-3.003 10.271 0 3.274 3.843 8.29 4.654 11.473.671 3.709.62 7.513-.15 11.203-.27 3.183-1.081 5.706 1.11 8.499 4.864 6.187 3.814.33 7.627 0 2.131-.15 4.233 3.574 8.076.961 2.342-1.592 3.002-7.358 3.903-11.533a84.124 84.124 0 013.903-17.389c1.771-4.054 5.194-5.166 7.806-6.938 1.501-1.021 4.504-1.501 5.194-3.243 1.08-2.643-2.402-1.172-2.492-3.274a37.064 37.064 0 012.192-12.223c2.372-3.605 5.134-2.613 9.757-4.115a55.198 55.198 0 0012.55-6.367 17.596 17.596 0 00-1.26 4.595c2.371 1.171 7.055-.21 9.576-.33-2.792 0-.78 3.303.991 3.964-.72-.27 3.513-.511 2.822-.541 1.261 0 3.003-.69 3.964-.72 1.771 0 1.381 1.802 3.272 1.892 3.002 0 2.222-7.118 1.861-10.752 1.111 1.471 5.465-.991 6.425-2.373 1.862-2.703.421-7.268 1.051-10.271.631-3.004 3.003-3.754 2.792-7.629a27.197 27.197 0 00-3.332-8.049c-.36-.781-3.513-1.622-3.513-1.682-.36-4.445 4.864-6.367 5.314-10.812.451-4.445-4.503-5.616 1.862-9.31 2.822-1.652 6.275.27 8.706-1.532 2.432-1.802.691-2.402 2.072-4.144 2.282-2.823 3.183-5.436 7.146-6.728 1.951-.66 5.104-.18 7.445-.931 1.381-.45 4.444-4.024 6.485-3.303-.99-.361-2.522 10.992-2.552 11.292-.39 2.012-1.711 2.823-2.161 4.385-1.381 4.625 7.716 3.244 9.007 2.403 3.002-1.712 3.482-8.47 6.004-9.731-1.08.54 9.007 5.015 8.437 5.286 4.113-2.133-1.141-3.484 4.563-3.574 0 0 4.534 2.342 5.495 2.583a8.766 8.766 0 009.577-2.013c1.021-.871.42 3.004.39 3.004-.03 0 3.843-1.142 4.744.24.901 1.382 0 3.003 0 3.364.631 1.441 1.471 5.406 3.002 6.427.961.661 4.444-2.673 6.666.3.36.481-.661 5.076 0 6.367 1.201 2.703 5.013 2.433 6.214 5.286 1.201 2.853-1.591 3.454-1.201 5.106.631 2.733 4.384 4.445 4.834 5.856.901 2.763-2.822 1.953-1.021 5.797.991 2.072-4.983 4.024-4.803 5.496.93 6.697 6.545-4.205 7.235-3.904.691.3 1.742 2.733 2.853 3.453-.931-.6 0 9.341 1.05 10.362 4.174 4.325 7.926-.991 12.55-.33 2.372.33 5.554 6.006 6.575 6.997 2.042 2.163 1.501 6.007 6.005 1.802 0 0 6.575 6.187 6.815 6.397-1.441-1.231-.36 8.71 0 10.842.3-.39 4.564 5.406 3.363 5.106 1.051.511 3.002 1.081 3.873 1.622a4.027 4.027 0 012.762-1.952 3.24 3.24 0 012.252 3.153c2.582 1.622 1.471 4.175 5.404 5.707 5.614 2.192 8.226-1.742 12.88-3.004 3.002-.811-7.026-15.497-7.476-16.818.21.69.42-8.169-.631-6.968 1.412-1.592 4.174 0 6.936.36 8.647 1.081 5.104-1.592 8.406-7.208 5.164-8.8 10.328 2.583 15.612 4.445 3.303 1.171-3.152-9.971-3.002-9.43-.991-4.866-.15-4.896 4.954-3.454l-4.564-5.797c5.014 1.923 3.153-1.591 3.843-3.934.691-2.343 11.619 5.616 11.379 5.376 1.261 1.321 1.111 4.265 2.372 5.166a6.99 6.99 0 014.263-.691 18.803 18.803 0 015.044 2.463c1.291.66 2.222-.451 3.423 0 1.201.45.811 2.192 2.132 2.613 2.552.78 4.443 0 7.595 1.471a32.451 32.451 0 015.795 3.995c1.051.781 1.891-3.004 2.102-3.364.81-1.051 18.314 6.757 21.016 7.328 1.294.334 2.568.745 3.813 1.232.54 0 5.134 1.381 5.404 1.381 3.273-.18 8.106-3.634 11.499-2.823 3.393.811 5.494 4.985 7.776 7.448 1.021 1.111 0 2.193 1.891 3.304.661.39 2.372 0 2.733.15.36.15 3.722-1.051 4.743 0 3.453 4.115-7.776 22.405-8.556 21.984 1.441.811 3.182 1.832 4.503 2.553 2.372 1.262 1.441-1.501 3.663-1.321 1.021 0 .961 5.105 2.432 3.604 0 0 1.801-4.505 1.861-4.355 1.802 4.505-3.002 13.515 3.003 6.517-1.231 1.472 7.926 7.899 7.415 6.848 2.102 4.445-.84.991-4.053 4.865-5.314 6.427 6.755.811 8.647 8.68 3.663-4.115 16.483-4.805 21.947-5.286 1.771 0 7.926-2.373 9.637-.451 3.723 4.115-3.002 3.544-5.494 3.845-2.492.3 7.986 18.02 8.257 18.861 3.332 9.31 2.852 22.585 4.353 32.646.78 5.286.69 10.241 1.051 15.467.42 6.007 0 8.59 6.004 6.487 1.682-.6.721-3.754 3.483-4.054 4.473-.481 3.002 2.162 4.834 5.286 1.021 1.802 2.191 1.682 3.002 3.003.811 1.322-.781 2.703.27 3.904a72.074 72.074 0 009.007 4.385c4.504.871 4.264-1.712 7.926-2.162 7.416-.961 10.298 8.349 12.43 13.605 1.261 3.003 0 2.673 2.072 5.436.48.691 2.552 2.313 3.302 3.484 1.621 2.583 0 4.655 1.201 7.598a14.514 14.514 0 009.157 6.608c4.083.6 6.605-3.484 10.839-3.004-4.114-.33.84 12.644 2.371 13.876a10.953 10.953 0 0010.839 1.351c2.011-.931.48-3.003 3.212-4.054 1.201-.451 3.303 2.012 5.345 1.922a28.155 28.155 0 009.607-2.163c4.654-2.492 7.146-5.676 12.67-7.868 3.002-1.202 6.665-.631 9.607-2.073a57.756 57.756 0 0111.229-3.694c6.005-1.682 3.002-1.621 8.256 1.082a69.059 69.059 0 0012.82 4.204c7.206 2.042 5.585 6.968 9.007 10.782a21.027 21.027 0 009.968 5.136c2.822.661 1.651-2.373 4.413-1.652 2.763.721 4.444 3.484 7.056 4.445 6.005 2.252 19.095 3.484 22.187-4.565 1.922-4.986-8.797-21.864 1.862-23.636.48-2.553 3.152-4.625 5.374-6.968 4.473-4.685.93-3.904 6.995-2.102 3.723 1.111 6.005 4.625 9.668 6.006 2.492 1.051 5.404.751 8.166 2.043 2.192 1.021 5.074 3.694 6.605 4.234 3.423 1.262 7.566-.811 9.908 3.724.42.811-1.411 3.514-1.261 4.415a27.027 27.027 0 003.482 7.118c4.954 9.01 14.231 11.653 23.509 9.01 3.933-1.111 10.688-4.745 14.501-4.685a74.496 74.496 0 0117.473 4.505 48.309 48.309 0 019.007 4.625c3.003 2.553 4.684 9.01 9.007 11.052 3.213 1.442 11.379.961 15.192 1.442 4.684.571 7.566 2.042 12.58.841 2.402-.601 5.104-3.003 7.746-3.754 1.741-.511 3.513 0 5.314-.601a40.586 40.586 0 005.825-3.183c1.05-.511 1.441-2.103 2.462-2.613 1.02-.511 3.002.69 3.843.15 6.154-3.424 9.877-11.803 16.332-15.678-.991.901 6.425-.66 4.413-.63 1.562 0 4.114-1.232 6.456 0 1.741.871 1.621 3.904 3.963 4.805 2.341.901 5.044-1.231 7.175-1.622 7.866-1.441 16.453 6.487 24.019 3.364 3.422-1.412 4.353-6.007 7.115-8.079 1.231-.991 4.474-1.892 5.254-3.003 2.372-3.004 2.402-8.5 2.763-13.065a57.69 57.69 0 013.002-15.857c1.921-5.497 7.115-10.422 5.314-16.819-1.621-5.797-3.002-3.003-6.665-5.046-2.222-1.231-2.342 2.223-3.333-2.072-.33-1.412 4.294-6.998 5.014-8.139 5.014-7.959 13.39-8.83 22.127-12.794 8.737-3.965 6.545-4.595 15.612-1.862a19.37 19.37 0 004.894 1.531c3.393.15 4.594-2.072 7.236-2.222a16.848 16.848 0 0111.765 4.985 95.255 95.255 0 018.86 9.551c4.35 6.007 8.38 13.455 13.81 20.062 3.56 4.301 6.86 8.814 9.88 13.515 2.13 3.454.81 6.457 5.79 7.749 4.39 1.141 5.62-2.102 9.52-2.042 2.34 0 2.76 2.192 4.89 2.162 3.01 0 5.56-2.763 8.26-2.283-1.08-.18 13.45 4.956 14.47 4.145-.21 2.583 4.87 9.461 6.46 12.013 1.05 1.562 1.23 2.073 1.17 2.163l1.29 1.081a7.542 7.542 0 002.4 1.914 7.54 7.54 0 002.97.789c1.41.18 11.56-1.712 13.54-3.724 3.25-3.274 2.23-9.01 5.38-12.794 6.54-7.659 14.53-14.867 19.66-4.746.96 1.893 3.46 4.115 3.31 6.998-.15 2.883-3.01 6.638-3.4 10.482-.39 5.496 2.1 9.671 2.8 13.875.32 5.517-.1 11.051-1.24 16.459-.39 2.312-1.26 3.724-1.56 6.006-.3 2.283 4.45 2.433-.24 6.457-3.42 3.004-7.83-.57-11.44.361-3 .811-3.42 2.012-5.1 3.754 1.32-1.352-5.25 8.68-4.5 6.307-2.01 6.397 4.77 11.172 7.11 18.02 1.9 4.273 3.47 8.68 4.72 13.185-.15-.961-1.87 8.199-1.05 6.787-.7 1.232-3.01 2.373-3.31 3.154-1.53 3.243-4.59.24-2.34 5.436 0 .18 3.36 3.904 4.32 3.904 3.01 0 .66-3.934-.45-5.796 3.67 4.805 8.5-16.879 8.08-18.261 3.16-.25 6.34-.179 9.49.211.33.15 1.89 3.543 3 4.655-.33-.691 5.28.24 6.18.57.48-.39 3.19-1.862 3.01-1.772 1.05-.272 2.06-.687 3-1.231 2.25-1.291 4.05-5.166 5.7-7.088 8.2-9.46 12.52-17.599 13.72-28.982.15-1.472-1.14-3.003-.78-4.895.18-.931 2.74-3.755 3.25-5.046 1.38-3.424.45-6.577 1.17-9.971a47.624 47.624 0 013.66-8.229 66.87 66.87 0 004.98-24.778c.24-4.114 1.53-7.839 1.38-11.773-.58-3.259-.75-6.58-.48-9.881.57-3.243 0-6.007.45-9.19.46-3.184 1.81-5.016 2.29-7.538a78.573 78.573 0 001.56-12.224c-1.14-20.032-16.73-35.289-17.57-55.261-.39-9.01-4.08-13.575-8.25-21.264-1.05-1.922-3.18-2.823-3.85-4.565-.99-2.643 1.48-3.664 0-6.007-2.55-3.934-7.95-2.282-11.19-6.006-.69.901-9.01-1.622-11.41-1.802a14.362 14.362 0 00-6.97-.181c-1.77.391-4.59 1.412-6.18 1.832 0 0 6.21 25.409.9 15.858-2.04-3.664 1.62-10.151-2.67-2.643-2.38 4.145-1.39 6.637-6.31 9.01-.15 0 2.37-8.439 2.37-9.01 0-1.201-4.14 1.051-4.98-.24-1.35-2.103 1.14-1.472.93-3.935-.57-6.006-4.38 3.785-4.68 4.565 0 .301 2.31 9.01-2.26 6.488-4.56-2.523.3-11.203-6.24-13.095-2.31-.661-5.68 3.514-8.44 4.025-6.78 1.231-8.04-1.892-5.64-8.049 1.41-3.604 2.25-7.899 3.87-11.263 3.78-7.688 7.27-13.275 7.66-22.375.15-3.333-.33-5.496 0-8.679.75-5.617 4.23-10.152 5.28-15.678 1.23-6.397-.18-13.695.9-20.332.51-3.004 2.52-5.556 3.18-8.44.94-4.144.21-8.469 1.6-12.524 2.67-7.898 10.53-11.653 16.69-16.007 2.82-2.013 4.59-6.007 7.26-7.599 1.66-.931 4.78 1.141 7.09-.21 1.11-.631-1.23-3.244.42-4.595 2.28-1.832 3.93-.18 5.22-.781.44.232.94.322 1.43.257.49-.064.95-.28 1.31-.617.77-.371 1.39-1 1.74-1.78.36-.779.43-1.658.21-2.485.05-.645.28-1.264.66-1.792a3.6 3.6 0 011.47-1.212c1.73.411 3.53.472 5.28.181-.2-3.812-.2-7.632 0-11.443 2.17-4.205 9.37-3.454 12.79-5.676 5.23-3.364 2.62-4.175 9.01-3.214 3 .451 5.76-3.994 3.54 2.523-.9 2.613-8.73 4.355-2.61 6.547 3.96 1.412 7.39-4.985 9.16-7.989a92.307 92.307 0 016.42-10.541c1.92-2.403 7.75-6.007 7.63-10.062-.21-5.616-4.38.421-6.31.631-6 .661-5.49-2.132-7.29-7.118-3.45-9.671-.24-19.101-3-28.922a49.303 49.303 0 01-3.01-10.992c0-3.004 2.05-4.625 3.22-6.908a28.743 28.743 0 017.17-9.641c4.75-3.513 5.2 3.695 5.83-7.448 4.2.751 6.72 16.909 11.71 15.437a3.09 3.09 0 01-.48-1.168c-.07-.418-.05-.847.05-1.259.11-.412.3-.796.56-1.128.27-.333.6-.605.98-.8 1.08.241 2.49 4.866 3.27 4.686 3.96-.901 2.34-3.845 2.16-7.208-.39-7.509-.69-16.699-.78-23.306 0-.961 2.49-.21 1.8-2.163-.69-1.952-6.99-4.985-8.77-7.148a10.606 10.606 0 01-2.72-6.336c-.17-2.357.45-4.705 1.76-6.668 2.41-3.003 6.37-4.655 7.33-1.321.3 1.051-2.31 2.733-2.1 4.595a54.014 54.014 0 006.9 10.061c3.85 4.745 8.41 6.397 9.52 12.614 1.11 6.217-1.02 12.824.75 19.461.36 1.352 2.73 2.403 3 3.364.37 3.492.53 7.002.48 10.512-.11 5.244.6 10.474 2.11 15.497a104.174 104.174 0 013.21 20.693 28.38 28.38 0 01-.54 9.37c0 .421-2.1 0-2.31.871.02.909.12 1.813.3 2.703a42.724 42.724 0 01-2.8 6.398c0 2.673 1.11 1.681 2.26 3.634 1.14 1.952 4.14 2.462 5.25 5.105.17 2.54.17 5.089 0 7.629 1.08 10.241 10.51 26.309 18.01 34.028 4.72 4.805 11.17 7.117 16.01 11.442 4.83 4.325 9.18 9.01 13.81 13.125 5.28 4.475 12.13 8.019 17.29 12.794z" fill="#E9E9E9"/><path d="M488.918 151.131c1.051 2.072-1.651 2.102.15 4.685.331.45 3.003-.421 3.663 0 2.132 2.012 5.104 9.551 8.166 7.809 2.402-1.352 2.102-12.284 3.273-15.227a33.756 33.756 0 0110.148-13.786c8.316-6.937 17.143-7.178 26.39-11.442 3.003-1.352 5.495-3.214 8.347-4.535 1.081-.511 2.822.45 4.083-.211 1.261-.66 2.012-2.853 3.002-3.003 3.333-1.141 3.993 0 6.515 1.592.541.36 9.248-1.772 7.836-4.565 1.802-.931 7.596 1.742 9.488 1.832.72 0 1.561-1.502 3.002-1.322 2.072.271 4.384 1.021 6.575 1.412 5.134.841 39.601 7.028 33.837-8.079-2.492-6.547-17.294.33-22.188-1.171-4.893-1.502-7.506-6.007-12.159-7.479-2.012-.57-6.275 1.232-9.007.991-3.723-.33-9.007 0-12.22-.45l-2.852.27c-.871 0-2.372-2.162-3.813-2.433-.24 0-2.612 2.824-3.272 3.004-.661.18-1.351-2.012-2.192-1.742 0 0-5.764 7.628-5.404 7.688-.991-.21-.781-2.432-2.162-1.621-1.381.811-.3 2.793-1.351 3.003-1.62.244-3.255.375-4.894.39-1.231 5.436-3.693-4.204-7.175 2.673-.451-.54-4.954-3.183-5.675-1.171-1.081 3.003.601 2.673 2.462 5.166a54.328 54.328 0 01-7.956 1.021c-.54 0-2.462-1.352-2.762-1.291a2.49 2.49 0 00-3.002-.421l-1.411 2.583a30.683 30.683 0 00-6.005.24c-3.002 1.111-2.072 4.565-6.005 6.427-4.804 2.253-14.141-5.075-15.011 4.716 0 .931 8.406 13.334 1.381 12.704 0 2.462 3.002 2.643.81 4.685-.33.33-4.113-1.322-5.104 2.162-.99 2.733 1.531 2.823 2.492 4.896z" fill="#E9E9E9"/><path d="M77.814 356.96c-.128-.48-.388-.992-.58-1.44-2.304-5.536-7.337-7.52-11.402-7.52-5.44 0-11.432 3.648-12.232 11.168v1.536c0 .064.022.64.053.928.449 3.584 3.277 7.392 5.388 10.976 2.273 3.84 4.63 7.617 6.966 11.392 1.44-2.464 2.875-4.96 4.283-7.36.383-.704.829-1.408 1.213-2.08.256-.448.745-.896.968-1.312 2.272-4.16 5.929-8.352 5.929-12.48v-1.696c0-.447-.555-2.015-.586-2.112zm-11.882 7.712c-1.6 0-3.35-.799-4.214-3.008-.128-.351-.118-1.056-.118-1.12v-.992c0-2.816 2.39-4.096 4.47-4.096 2.56 0 4.54 2.048 4.54 4.609 0 2.56-2.118 4.607-4.678 4.607zM187.814 210.96c-.128-.48-.388-.992-.581-1.44-2.303-5.536-7.337-7.52-11.401-7.52-5.44 0-11.432 3.648-12.232 11.168v1.536c0 .064.022.64.053.928.449 3.584 3.277 7.392 5.388 10.976 2.273 3.84 4.63 7.617 6.966 11.392 1.44-2.464 2.875-4.96 4.283-7.36.383-.704.829-1.408 1.213-2.08.256-.448.745-.896.968-1.312 2.272-4.16 5.929-8.352 5.929-12.48v-1.696c0-.447-.555-2.015-.586-2.112zm-11.882 7.712c-1.599 0-3.35-.799-4.214-3.008-.128-.351-.118-1.056-.118-1.12v-.992c0-2.816 2.39-4.096 4.47-4.096 2.56 0 4.54 2.048 4.54 4.609 0 2.56-2.118 4.607-4.678 4.607zm65.882 48.288c-.128-.48-.388-.992-.581-1.44-2.303-5.536-7.337-7.52-11.401-7.52-5.44 0-11.432 3.648-12.232 11.168v1.536c0 .064.022.64.053.928.449 3.584 3.277 7.392 5.388 10.976 2.273 3.84 4.63 7.617 6.966 11.392 1.44-2.464 2.875-4.96 4.283-7.36.383-.704.829-1.408 1.213-2.08.256-.448.745-.896.968-1.312 2.272-4.16 5.929-8.352 5.929-12.48v-1.696c0-.447-.555-2.015-.586-2.112zm-11.882 7.712c-1.599 0-3.35-.799-4.214-3.008-.128-.351-.118-1.056-.118-1.12v-.992c0-2.816 2.39-4.096 4.47-4.096 2.56 0 4.54 2.048 4.54 4.609 0 2.56-2.118 4.607-4.678 4.607zm65.882 48.288c-.128-.48-.388-.992-.581-1.44-2.303-5.536-7.337-7.52-11.401-7.52-5.44 0-11.432 3.648-12.232 11.168v1.536c0 .064.022.64.053.928.449 3.584 3.277 7.392 5.388 10.976 2.273 3.84 4.63 7.617 6.966 11.392 1.44-2.464 2.875-4.96 4.283-7.36.383-.704.829-1.408 1.213-2.08.256-.448.745-.896.968-1.312 2.272-4.16 5.929-8.352 5.929-12.48v-1.696c0-.447-.555-2.015-.586-2.112zm-11.882 7.712c-1.599 0-3.35-.799-4.214-3.008-.128-.351-.118-1.056-.118-1.12v-.992c0-2.816 2.39-4.096 4.47-4.096 2.56 0 4.54 2.048 4.54 4.609 0 2.56-2.118 4.607-4.678 4.607zm183.882 3.288c-.128-.48-.388-.992-.581-1.44-2.303-5.536-7.337-7.52-11.401-7.52-5.44 0-11.432 3.648-12.232 11.168v1.536c0 .064.022.64.053.928.449 3.584 3.277 7.392 5.388 10.976 2.273 3.84 4.63 7.617 6.966 11.392 1.44-2.464 2.875-4.96 4.283-7.36.383-.704.829-1.408 1.213-2.08.256-.448.745-.896.968-1.312 2.272-4.16 5.929-8.352 5.929-12.48v-1.696c0-.447-.555-2.015-.586-2.112zm-11.882 7.712c-1.599 0-3.35-.799-4.214-3.008-.128-.351-.118-1.056-.118-1.12v-.992c0-2.816 2.39-4.096 4.47-4.096 2.56 0 4.54 2.048 4.54 4.609 0 2.56-2.118 4.607-4.678 4.607zm246.882-33.712c-.128-.48-.388-.992-.581-1.44-2.303-5.536-7.337-7.52-11.401-7.52-5.44 0-11.432 3.648-12.232 11.168v1.536c0 .064.022.64.053.928.449 3.584 3.277 7.392 5.388 10.976 2.273 3.84 4.63 7.617 6.966 11.392 1.44-2.464 2.875-4.96 4.283-7.36.383-.704.829-1.408 1.213-2.08.256-.448.745-.896.968-1.312 2.272-4.16 5.929-8.352 5.929-12.48v-1.696c0-.447-.555-2.015-.586-2.112zm-11.882 7.712c-1.599 0-3.35-.799-4.214-3.008-.128-.351-.118-1.056-.118-1.12v-.992c0-2.816 2.39-4.096 4.47-4.096 2.56 0 4.54 2.048 4.54 4.609 0 2.56-2.118 4.607-4.678 4.607zm246.882-33.712c-.128-.48-.388-.992-.581-1.44-2.303-5.536-7.337-7.52-11.401-7.52-5.44 0-11.432 3.648-12.232 11.168v1.536c0 .064.022.64.053.928.449 3.584 3.277 7.392 5.388 10.976 2.273 3.84 4.63 7.617 6.966 11.392 1.44-2.464 2.875-4.96 4.283-7.36.383-.704.829-1.408 1.213-2.08.256-.448.745-.896.968-1.312 2.272-4.16 5.929-8.352 5.929-12.48v-1.696c0-.447-.555-2.015-.586-2.112zm-11.882 7.712c-1.599 0-3.35-.799-4.214-3.008-.128-.351-.118-1.056-.118-1.12v-.992c0-2.816 2.39-4.096 4.47-4.096 2.56 0 4.54 2.048 4.54 4.609 0 2.56-2.118 4.607-4.678 4.607zm237.878-16.712c-.12-.48-.38-.992-.58-1.44-2.3-5.536-7.33-7.52-11.4-7.52-5.44 0-11.43 3.648-12.23 11.168v1.536c0 .064.02.64.05.928.45 3.584 3.28 7.392 5.39 10.976 2.27 3.84 4.63 7.617 6.97 11.392 1.44-2.464 2.87-4.96 4.28-7.36.38-.704.83-1.408 1.21-2.08.26-.448.75-.896.97-1.312 2.27-4.16 5.93-8.352 5.93-12.48v-1.696c0-.447-.55-2.015-.59-2.112zm-11.88 7.712c-1.6 0-3.35-.799-4.21-3.008-.13-.351-.12-1.056-.12-1.12v-.992c0-2.816 2.39-4.096 4.47-4.096 2.56 0 4.54 2.048 4.54 4.609 0 2.56-2.12 4.607-4.68 4.607zm41.88-162.712c-.12-.48-.38-.992-.58-1.44-2.3-5.536-7.33-7.52-11.4-7.52-5.44 0-11.43 3.648-12.23 11.168v1.536c0 .064.02.64.05.928.45 3.584 3.28 7.392 5.39 10.976 2.27 3.84 4.63 7.617 6.97 11.392 1.44-2.464 2.87-4.96 4.28-7.36.38-.704.83-1.408 1.21-2.08.26-.448.75-.896.97-1.312 2.27-4.16 5.93-8.352 5.93-12.48v-1.696c0-.447-.55-2.015-.59-2.112zm-11.88 7.712c-1.6 0-3.35-.799-4.21-3.008-.13-.351-.12-1.056-.12-1.12v-.992c0-2.816 2.39-4.096 4.47-4.096 2.56 0 4.54 2.048 4.54 4.609 0 2.56-2.12 4.607-4.68 4.607zm-17.12 533.288c-.12-.48-.38-.992-.58-1.44-2.3-5.536-7.33-7.52-11.4-7.52-5.44 0-11.43 3.648-12.23 11.168v1.536c0 .064.02.64.05.928.45 3.584 3.28 7.392 5.39 10.976 2.27 3.84 4.63 7.617 6.97 11.392 1.44-2.464 2.87-4.96 4.28-7.36.38-.704.83-1.408 1.21-2.08.26-.448.75-.896.97-1.312 2.27-4.16 5.93-8.352 5.93-12.48v-1.696c0-.447-.55-2.015-.59-2.112zm-11.88 7.712c-1.6 0-3.35-.799-4.21-3.008-.13-.351-.12-1.056-.12-1.12v-.992c0-2.816 2.39-4.096 4.47-4.096 2.56 0 4.54 2.048 4.54 4.609 0 2.56-2.12 4.607-4.68 4.607zM743.814 546.96c-.128-.48-.388-.992-.581-1.44-2.303-5.536-7.337-7.52-11.401-7.52-5.44 0-11.432 3.648-12.232 11.168v1.536c0 .064.022.64.053.928.449 3.584 3.277 7.392 5.388 10.976 2.273 3.84 4.63 7.617 6.966 11.392 1.44-2.464 2.875-4.96 4.283-7.36.383-.704.829-1.408 1.213-2.08.256-.448.745-.896.968-1.312 2.272-4.16 5.929-8.352 5.929-12.48v-1.696c0-.447-.555-2.015-.586-2.112zm-11.882 7.712c-1.599 0-3.35-.799-4.214-3.008-.128-.351-.118-1.056-.118-1.12v-.992c0-2.816 2.39-4.096 4.47-4.096 2.56 0 4.54 2.048 4.54 4.609 0 2.56-2.118 4.607-4.678 4.607zM553.814 436.96c-.128-.48-.388-.992-.581-1.44-2.303-5.536-7.337-7.52-11.401-7.52-5.44 0-11.432 3.648-12.232 11.168v1.536c0 .064.022.64.053.928.449 3.584 3.277 7.392 5.388 10.976 2.273 3.84 4.63 7.617 6.966 11.392 1.44-2.464 2.875-4.96 4.283-7.36.383-.704.829-1.408 1.213-2.08.256-.448.745-.896.968-1.312 2.272-4.16 5.929-8.352 5.929-12.48v-1.696c0-.447-.555-2.015-.586-2.112zm-11.882 7.712c-1.599 0-3.35-.799-4.214-3.008-.128-.351-.118-1.056-.118-1.12v-.992c0-2.816 2.39-4.096 4.47-4.096 2.56 0 4.54 2.048 4.54 4.609 0 2.56-2.118 4.607-4.678 4.607zM362.814 196.96c-.128-.48-.388-.992-.581-1.44-2.303-5.536-7.337-7.52-11.401-7.52-5.44 0-11.432 3.648-12.232 11.168v1.536c0 .064.022.64.053.928.449 3.584 3.277 7.392 5.388 10.976 2.273 3.84 4.63 7.617 6.966 11.392 1.44-2.464 2.875-4.96 4.283-7.36.383-.704.829-1.408 1.213-2.08.256-.448.745-.896.968-1.312 2.272-4.16 5.929-8.352 5.929-12.48v-1.696c0-.447-.555-2.015-.586-2.112zm-11.882 7.712c-1.599 0-3.35-.799-4.214-3.008-.128-.351-.118-1.056-.118-1.12v-.992c0-2.816 2.39-4.096 4.47-4.096 2.56 0 4.54 2.048 4.54 4.609 0 2.56-2.118 4.607-4.678 4.607zm-99.118-57.712c-.128-.48-.388-.992-.581-1.44-2.303-5.536-7.337-7.52-11.401-7.52-5.44 0-11.432 3.648-12.232 11.168v1.536c0 .064.022.64.053.928.449 3.584 3.277 7.392 5.388 10.976 2.273 3.84 4.63 7.617 6.966 11.392 1.44-2.464 2.875-4.96 4.283-7.36.383-.704.829-1.408 1.213-2.08.256-.448.745-.896.968-1.312 2.272-4.16 5.929-8.352 5.929-12.48v-1.696c0-.447-.555-2.015-.586-2.112zm-11.882 7.712c-1.599 0-3.35-.799-4.214-3.008-.128-.351-.118-1.056-.118-1.12v-.992c0-2.816 2.39-4.096 4.47-4.096 2.56 0 4.54 2.048 4.54 4.609 0 2.56-2.118 4.607-4.678 4.607zM140.814 266.96c-.128-.48-.388-.992-.581-1.44-2.303-5.536-7.337-7.52-11.401-7.52-5.44 0-11.432 3.648-12.232 11.168v1.536c0 .064.022.64.053.928.449 3.584 3.277 7.392 5.388 10.976 2.273 3.84 4.63 7.617 6.966 11.392 1.44-2.464 2.875-4.96 4.283-7.36.383-.704.829-1.408 1.213-2.08.256-.448.745-.896.968-1.312 2.272-4.16 5.929-8.352 5.929-12.48v-1.696c0-.447-.555-2.015-.586-2.112zm-11.882 7.712c-1.599 0-3.35-.799-4.214-3.008-.128-.351-.118-1.056-.118-1.12v-.992c0-2.816 2.39-4.096 4.47-4.096 2.56 0 4.54 2.048 4.54 4.609 0 2.56-2.118 4.607-4.678 4.607zM69.814 426.96c-.128-.48-.388-.992-.58-1.44-2.304-5.536-7.337-7.52-11.402-7.52-5.44 0-11.432 3.648-12.232 11.168v1.536c0 .064.022.64.053.928.449 3.584 3.277 7.392 5.388 10.976 2.273 3.84 4.63 7.617 6.966 11.392 1.44-2.464 2.875-4.96 4.283-7.36.383-.704.829-1.408 1.213-2.08.256-.448.745-.896.968-1.312 2.272-4.16 5.929-8.352 5.929-12.48v-1.696c0-.447-.555-2.015-.586-2.112zm-11.882 7.712c-1.6 0-3.35-.799-4.214-3.008-.128-.351-.118-1.056-.118-1.12v-.992c0-2.816 2.39-4.096 4.47-4.096 2.56 0 4.54 2.048 4.54 4.609 0 2.56-2.118 4.607-4.678 4.607zM311.814 230.96c-.128-.48-.388-.992-.581-1.44-2.303-5.536-7.337-7.52-11.401-7.52-5.44 0-11.432 3.648-12.232 11.168v1.536c0 .064.022.64.053.928.449 3.584 3.277 7.392 5.388 10.976 2.273 3.84 4.63 7.617 6.966 11.392 1.44-2.464 2.875-4.96 4.283-7.36.383-.704.829-1.408 1.213-2.08.256-.448.745-.896.968-1.312 2.272-4.16 5.929-8.352 5.929-12.48v-1.696c0-.447-.555-2.015-.586-2.112zm-11.882 7.712c-1.599 0-3.35-.799-4.214-3.008-.128-.351-.118-1.056-.118-1.12v-.992c0-2.816 2.39-4.096 4.47-4.096 2.56 0 4.54 2.048 4.54 4.609 0 2.56-2.118 4.607-4.678 4.607zM577.814 516.96c-.128-.48-.388-.992-.581-1.44-2.303-5.536-7.337-7.52-11.401-7.52-5.44 0-11.432 3.648-12.232 11.168v1.536c0 .064.022.64.053.928.449 3.584 3.277 7.392 5.388 10.976 2.273 3.84 4.63 7.617 6.966 11.392 1.44-2.464 2.875-4.96 4.283-7.36.383-.704.829-1.408 1.213-2.08.256-.448.745-.896.968-1.312 2.272-4.16 5.929-8.352 5.929-12.48v-1.696c0-.447-.555-2.015-.586-2.112zm-11.882 7.712c-1.599 0-3.35-.799-4.214-3.008-.128-.351-.118-1.056-.118-1.12v-.992c0-2.816 2.39-4.096 4.47-4.096 2.56 0 4.54 2.048 4.54 4.609 0 2.56-2.118 4.607-4.678 4.607zM956.814 416.96c-.128-.48-.388-.992-.581-1.44-2.303-5.536-7.337-7.52-11.401-7.52-5.44 0-11.432 3.648-12.232 11.168v1.536c0 .064.022.64.053.928.449 3.584 3.277 7.392 5.388 10.976 2.273 3.84 4.63 7.617 6.966 11.392 1.44-2.464 2.875-4.96 4.283-7.36.383-.704.829-1.408 1.213-2.08.256-.448.745-.896.968-1.312 2.272-4.16 5.929-8.352 5.929-12.48v-1.696c0-.447-.555-2.015-.586-2.112zm-11.882 7.712c-1.599 0-3.35-.799-4.214-3.008-.128-.351-.118-1.056-.118-1.12v-.992c0-2.816 2.39-4.096 4.47-4.096 2.56 0 4.54 2.048 4.54 4.609 0 2.56-2.118 4.607-4.678 4.607zM275.814 406.96c-.128-.48-.388-.992-.581-1.44-2.303-5.536-7.337-7.52-11.401-7.52-5.44 0-11.432 3.648-12.232 11.168v1.536c0 .064.022.64.053.928.449 3.584 3.277 7.392 5.388 10.976 2.273 3.84 4.63 7.617 6.966 11.392 1.44-2.464 2.875-4.96 4.283-7.36.383-.704.829-1.408 1.213-2.08.256-.448.745-.896.968-1.312 2.272-4.16 5.929-8.352 5.929-12.48v-1.696c0-.447-.555-2.015-.586-2.112zm-11.882 7.712c-1.599 0-3.35-.799-4.214-3.008-.128-.351-.118-1.056-.118-1.12v-.992c0-2.816 2.39-4.096 4.47-4.096 2.56 0 4.54 2.048 4.54 4.609 0 2.56-2.118 4.607-4.678 4.607zM394.814 286.96c-.128-.48-.388-.992-.581-1.44-2.303-5.536-7.337-7.52-11.401-7.52-5.44 0-11.432 3.648-12.232 11.168v1.536c0 .064.022.64.053.928.449 3.584 3.277 7.392 5.388 10.976 2.273 3.84 4.63 7.617 6.966 11.392 1.44-2.464 2.875-4.96 4.283-7.36.383-.704.829-1.408 1.213-2.08.256-.448.745-.896.968-1.312 2.272-4.16 5.929-8.352 5.929-12.48v-1.696c0-.447-.555-2.015-.586-2.112zm-11.882 7.712c-1.599 0-3.35-.799-4.214-3.008-.128-.351-.118-1.056-.118-1.12v-.992c0-2.816 2.39-4.096 4.47-4.096 2.56 0 4.54 2.048 4.54 4.609 0 2.56-2.118 4.607-4.678 4.607zm70.882-87.712c-.128-.48-.388-.992-.581-1.44-2.303-5.536-7.337-7.52-11.401-7.52-5.44 0-11.432 3.648-12.232 11.168v1.536c0 .064.022.64.053.928.449 3.584 3.277 7.392 5.388 10.976 2.273 3.84 4.63 7.617 6.966 11.392 1.44-2.464 2.875-4.96 4.283-7.36.383-.704.829-1.408 1.213-2.08.256-.448.745-.896.968-1.312 2.272-4.16 5.929-8.352 5.929-12.48v-1.696c0-.447-.555-2.015-.586-2.112zm-11.882 7.712c-1.599 0-3.35-.799-4.214-3.008-.128-.351-.118-1.056-.118-1.12v-.992c0-2.816 2.39-4.096 4.47-4.096 2.56 0 4.54 2.048 4.54 4.609 0 2.56-2.118 4.607-4.678 4.607zm-199.118-7.712c-.128-.48-.388-.992-.581-1.44-2.303-5.536-7.337-7.52-11.401-7.52-5.44 0-11.432 3.648-12.232 11.168v1.536c0 .064.022.64.053.928.449 3.584 3.277 7.392 5.388 10.976 2.273 3.84 4.63 7.617 6.966 11.392 1.44-2.464 2.875-4.96 4.283-7.36.383-.704.829-1.408 1.213-2.08.256-.448.745-.896.968-1.312 2.272-4.16 5.929-8.352 5.929-12.48v-1.696c0-.447-.555-2.015-.586-2.112zm-11.882 7.712c-1.599 0-3.35-.799-4.214-3.008-.128-.351-.118-1.056-.118-1.12v-.992c0-2.816 2.39-4.096 4.47-4.096 2.56 0 4.54 2.048 4.54 4.609 0 2.56-2.118 4.607-4.678 4.607zM181.814 326.96c-.128-.48-.388-.992-.581-1.44-2.303-5.536-7.337-7.52-11.401-7.52-5.44 0-11.432 3.648-12.232 11.168v1.536c0 .064.022.64.053.928.449 3.584 3.277 7.392 5.388 10.976 2.273 3.84 4.63 7.617 6.966 11.392 1.44-2.464 2.875-4.96 4.283-7.36.383-.704.829-1.408 1.213-2.08.256-.448.745-.896.968-1.312 2.272-4.16 5.929-8.352 5.929-12.48v-1.696c0-.447-.555-2.015-.586-2.112zm-11.882 7.712c-1.599 0-3.35-.799-4.214-3.008-.128-.351-.118-1.056-.118-1.12v-.992c0-2.816 2.39-4.096 4.47-4.096 2.56 0 4.54 2.048 4.54 4.609 0 2.56-2.118 4.607-4.678 4.607z" fill="#E51F32"/></g><defs><clipPath id="clip0"><path fill="#fff" d="M0 0h1335v754H0z"/></clipPath></defs></svg>