<svg width="154" height="597" fill="none" xmlns="http://www.w3.org/2000/svg"><path d="M153 5c-14.667 87.333-30.5 234-25 288 4.481 44 21 250 7 296" stroke="#000"/><path d="M133 5c-14.667 87.333-30.5 234-25 288 4.481 44 21 250 7 296" stroke="#000"/><path d="M113 5C98.334 92.333 82.5 239 88 293c4.481 44 21 250 7 296" stroke="#000"/><path d="M93 5C78.334 92.333 62.5 239 68 293c4.481 44 21 250 7 296" stroke="#000"/><path d="M73 5C58.334 92.333 42.5 239 48 293c4.481 44 21 250 7 296" stroke="#000"/><path d="M32 1C17.334 88.333 1.5 239 7 293c4.482 44 21 256 7 302" stroke="#fff" stroke-width="10"/></svg>